<svg xmlns="http://www.w3.org/2000/svg" width="74" height="74" viewBox="0 0 74 74" fill="none">
  <path d="M55.6542 65.6441C55.3689 65.9299 55.0301 66.1567 54.6571 66.3114C54.2841 66.4661 53.8843 66.5458 53.4804 66.5458C53.0766 66.5458 52.6768 66.4661 52.3038 66.3114C51.9308 66.1567 51.5919 65.9299 51.3067 65.6441L44.77 59.1074C44.4846 58.822 44.2581 58.4831 44.1036 58.1101C43.9491 57.7371 43.8696 57.3374 43.8696 56.9337C43.8696 56.53 43.9491 56.1302 44.1036 55.7572C44.2581 55.3843 44.4846 55.0454 44.77 54.7599C45.3465 54.1834 46.1285 53.8595 46.9438 53.8595C47.3475 53.8595 47.7472 53.939 48.1202 54.0935C48.4932 54.248 48.8321 54.4745 49.1175 54.7599L53.465 59.1074L64.38 48.1924C64.6655 47.907 65.0044 47.6805 65.3773 47.526C65.7503 47.3715 66.1501 47.292 66.5538 47.292C66.9575 47.292 67.3572 47.3715 67.7302 47.526C68.1032 47.6805 68.4421 47.907 68.7275 48.1924C69.013 48.4779 69.2394 48.8168 69.3939 49.1897C69.5484 49.5627 69.6279 49.9625 69.6279 50.3662C69.6279 50.7699 69.5484 51.1696 69.3939 51.5426C69.2394 51.9156 69.013 52.2545 68.7275 52.5399L55.6542 65.6441ZM37.2467 61.6666H12.3334C8.94169 61.6666 6.16669 58.8916 6.16669 55.4999V18.4999C6.16669 15.1083 8.94169 12.3333 12.3334 12.3333H61.6667C65.0584 12.3333 67.8334 15.1083 67.8334 18.4999V39.0966C64.545 37.5322 60.9142 36.8259 57.2792 37.0435C53.6442 37.2611 50.1236 38.3955 47.0453 40.3409C43.9671 42.2864 41.4316 44.9795 39.675 48.1693C37.9185 51.3592 36.9983 54.9418 37 58.5833C37 59.6316 37.0925 60.6491 37.2467 61.6666ZM35.3659 39.0658C36.3525 39.6824 37.6475 39.6824 38.6342 39.0658L60.4334 25.4374C60.7425 25.2639 61.0133 25.0294 61.2292 24.7482C61.4451 24.4669 61.6017 24.1448 61.6896 23.8013C61.7774 23.4578 61.7946 23.1001 61.7402 22.7497C61.6858 22.3993 61.5608 22.0637 61.3729 21.763C61.185 21.4623 60.938 21.2029 60.6469 21.0005C60.3559 20.798 60.0268 20.6567 59.6795 20.5852C59.3322 20.5136 58.9741 20.5132 58.6267 20.5841C58.2793 20.655 57.9498 20.7956 57.6584 20.9974L37 33.9166L16.3417 20.9974C16.0502 20.7956 15.7208 20.655 15.3734 20.5841C15.026 20.5132 14.6678 20.5136 14.3205 20.5852C13.9733 20.6567 13.6442 20.798 13.3531 21.0005C13.062 21.2029 12.8151 21.4623 12.6271 21.763C12.4392 22.0637 12.3143 22.3993 12.2598 22.7497C12.2054 23.1001 12.2226 23.4578 12.3105 23.8013C12.3983 24.1448 12.5549 24.4669 12.7708 24.7482C12.9868 25.0294 13.2575 25.2639 13.5667 25.4374L35.3659 39.0658Z" fill="#222222"/>
</svg>
