<svg xmlns="http://www.w3.org/2000/svg" width="57" height="57" viewBox="0 0 57 57" fill="none">
  <g clip-path="url(#clip0_5_11)">
    <path d="M56.9729 29.0334C56.9729 26.6982 56.7789 24.994 56.3592 23.2268H29.0678V33.767H45.0872C44.7644 36.3864 43.0203 40.3312 39.1445 42.9819L39.0902 43.3347L47.7193 49.8665L48.3171 49.9248C53.8076 44.9701 56.9729 37.6802 56.9729 29.0334Z" fill="#4285F4"/>
    <path d="M29.0678 56.8043C36.916 56.8043 43.5046 54.2796 48.3171 49.9247L39.1445 42.9818C36.69 44.6544 33.3955 45.822 29.0678 45.822C21.381 45.822 14.857 40.8676 12.5313 34.0195L12.1904 34.0478L3.21782 40.8328L3.10048 41.1515C7.88046 50.4294 17.6989 56.8043 29.0678 56.8043Z" fill="#34A853"/>
    <path d="M12.5313 34.0196C11.9177 32.2524 11.5625 30.3588 11.5625 28.4023C11.5625 26.4456 11.9177 24.5522 12.499 22.785L12.4828 22.4086L3.39773 15.5146L3.10049 15.6528C1.13043 19.5029 0 23.8264 0 28.4023C0 32.9782 1.13043 37.3015 3.10049 41.1516L12.5313 34.0196Z" fill="#FBBC05"/>
    <path d="M29.0678 10.9821C34.526 10.9821 38.2078 13.2858 40.3072 15.211L48.5108 7.38455C43.4725 2.80866 36.916 0 29.0678 0C17.6989 0 7.88046 6.37465 3.10048 15.6526L12.499 22.7848C14.857 15.9367 21.381 10.9821 29.0678 10.9821Z" fill="#EB4335"/>
  </g>
  <defs>
    <clipPath id="clip0_5_11">
      <rect width="57" height="57" fill="white"/>
    </clipPath>
  </defs>
</svg>
