<svg xmlns="http://www.w3.org/2000/svg" width="74" height="74" viewBox="0 0 74 74" fill="none">
  <path d="M55.5 24.6666H61.6667C62.4844 24.6666 63.2687 24.9914 63.8469 25.5697C64.4252 26.1479 64.75 26.9322 64.75 27.7499V64.7499C64.75 65.5677 64.4252 66.3519 63.8469 66.9302C63.2687 67.5084 62.4844 67.8333 61.6667 67.8333H12.3333C11.5156 67.8333 10.7313 67.5084 10.1531 66.9302C9.57485 66.3519 9.25 65.5677 9.25 64.7499V27.7499C9.25 26.9322 9.57485 26.1479 10.1531 25.5697C10.7313 24.9914 11.5156 24.6666 12.3333 24.6666H18.5V21.5833C18.5 16.6767 20.4491 11.9712 23.9185 8.50178C27.3879 5.03235 32.0935 3.08325 37 3.08325C41.9065 3.08325 46.6121 5.03235 50.0815 8.50178C53.5509 11.9712 55.5 16.6767 55.5 21.5833V24.6666ZM49.3333 24.6666V21.5833C49.3333 18.3122 48.0339 15.1752 45.721 12.8623C43.408 10.5493 40.271 9.24992 37 9.24992C33.729 9.24992 30.592 10.5493 28.279 12.8623C25.9661 15.1752 24.6667 18.3122 24.6667 21.5833V24.6666H49.3333ZM33.9167 43.1666V49.3333H40.0833V43.1666H33.9167ZM21.5833 43.1666V49.3333H27.75V43.1666H21.5833ZM46.25 43.1666V49.3333H52.4167V43.1666H46.25Z" fill="#222222"/>
</svg>
