<svg xmlns="http://www.w3.org/2000/svg" width="192" height="272" viewBox="0 0 192 272" fill="none">
  <path d="M54.5021 271.832C43.4716 271.91 32.6891 268.56 23.6445 262.246C14.5999 255.931 7.73965 246.964 4.01165 236.582C0.283655 226.2 -0.128046 214.917 2.83344 204.291C5.79493 193.665 11.9834 184.221 20.5438 177.265C14.3936 172.287 9.43365 165.998 6.02647 158.857C2.61929 151.716 0.851056 143.904 0.851056 135.992C0.851056 128.08 2.61929 120.267 6.02647 113.127C9.43365 105.986 14.3936 99.6964 20.5438 94.7187C11.9728 87.7681 5.77434 78.3251 2.80637 67.6966C-0.161597 57.0682 0.247709 45.7799 3.97763 35.3943C7.70756 25.0087 14.5736 16.0394 23.6255 9.72779C32.6774 3.41619 43.4674 0.074455 54.5021 0.165128H137.496C148.531 0.074455 159.321 3.41619 168.373 9.72779C177.425 16.0394 184.291 25.0087 188.021 35.3943C191.751 45.7799 192.16 57.0682 189.192 67.6966C186.224 78.3251 180.026 87.7681 171.455 94.7187C180.023 101.672 186.219 111.116 189.185 121.744C192.152 132.372 191.742 143.66 188.013 154.045C184.283 164.431 177.419 173.4 168.369 179.714C159.319 186.027 148.531 189.372 137.496 189.286C127.051 189.299 116.829 186.258 108.088 180.538V218.572C108.027 232.735 102.352 246.296 92.3061 256.28C82.2606 266.264 68.6654 271.857 54.5021 271.832ZM54.2033 189.299C48.4398 189.39 42.8316 191.183 38.0835 194.451C33.3353 197.719 29.6589 202.318 27.516 207.669C25.3732 213.02 24.8595 218.885 26.0396 224.528C27.2196 230.17 30.0407 235.337 34.1485 239.381C38.2563 243.425 43.4675 246.165 49.1275 247.257C54.7875 248.348 60.6438 247.743 65.9608 245.516C71.2777 243.29 75.8181 239.542 79.0117 234.743C82.2052 229.944 83.9093 224.309 83.91 218.544V189.299H54.1897H54.2033ZM137.51 106.754C131.732 106.783 126.093 108.523 121.303 111.755C116.514 114.986 112.788 119.564 110.598 124.91C108.407 130.256 107.849 136.132 108.995 141.795C110.14 147.458 112.937 152.655 117.033 156.73C121.129 160.805 126.34 163.576 132.009 164.692C137.677 165.808 143.55 165.22 148.885 163.003C154.22 160.785 158.779 157.036 161.986 152.23C165.193 147.424 166.904 141.776 166.904 135.998C166.875 128.223 163.763 120.776 158.249 115.293C152.736 109.81 145.272 106.739 137.496 106.754H137.51ZM54.5157 106.754C46.7595 106.712 39.3045 109.754 33.7907 115.209C28.2769 120.664 25.156 128.086 25.1146 135.842C25.0732 143.598 28.1146 151.053 33.5698 156.567C39.025 162.081 46.4471 165.202 54.2033 165.243H83.91V106.754H54.5157ZM108.088 24.2076V82.711H137.483C145.049 82.7463 152.334 79.8507 157.812 74.6314C163.29 69.4121 166.534 62.2746 166.863 54.7158V60.6245V53.4525C166.831 45.6851 163.723 38.2468 158.219 32.7658C152.715 27.2848 145.264 24.2076 137.496 24.2076H108.088ZM54.4886 24.2076C46.7323 24.2076 39.2938 27.2888 33.8093 32.7733C28.3248 38.2577 25.2436 45.6963 25.2436 53.4525C25.2436 61.2088 28.3248 68.6473 33.8093 74.1318C39.2938 79.6163 46.7323 82.6975 54.4886 82.6975H83.91V24.2076H54.4886Z" fill="white"/>
</svg>
