<svg xmlns="http://www.w3.org/2000/svg" width="146" height="42" viewBox="0 0 146 42" fill="none">
  <g clip-path="url(#clip0_11_6)">
    <path d="M117.34 19.3588C116.656 19.3588 116.143 19.2919 115.836 19.1914C115.528 19.0909 115.288 18.8564 115.22 18.5215C115.117 18.1866 115.083 17.7177 115.083 17.0478V8.10525C115.083 7.50238 115.117 7.03348 115.186 6.69855C115.254 6.36362 115.459 6.12917 115.767 5.9952C116.075 5.86123 116.622 5.79425 117.34 5.79425V5.12439H110.637V5.79425C111.39 5.79425 111.903 5.86123 112.245 5.9952C112.552 6.12917 112.758 6.36362 112.826 6.69855C112.894 7.03348 112.929 7.50238 112.929 8.10525V17.0813C112.929 17.7177 112.894 18.2201 112.792 18.555C112.689 18.8899 112.484 19.0909 112.176 19.2249C111.834 19.3253 111.355 19.3923 110.637 19.3923V20.0622H117.34V19.3588Z" fill="#FDEFF4"/>
    <path d="M70.7599 19.3589C70.0759 19.3589 69.5629 19.2919 69.2551 19.1914C68.9131 19.0574 68.7079 18.8565 68.6395 18.5215C68.5369 18.1866 68.5027 17.7177 68.5027 17.0813V12.9617H68.7079L70.7599 14.9713C71.5465 15.7081 72.1963 16.3445 72.6751 16.8134C73.1539 17.3158 73.5301 17.7177 73.7695 18.0191C74.0089 18.3541 74.1115 18.622 74.1115 18.89C74.1115 19.0574 74.0431 19.1579 73.9063 19.2584C73.7695 19.3254 73.5301 19.3589 73.2223 19.3589H72.7435V20.0287H79.4467V19.3589C78.8653 19.3589 78.4207 19.2919 78.1129 19.1244C77.7709 18.9569 77.4289 18.7225 77.0527 18.3876L70.3837 11.9569L75.4111 7.33493C75.8215 6.96651 76.1977 6.66508 76.4713 6.43063C76.7449 6.19618 77.0527 6.0622 77.3605 5.92823C77.6683 5.82775 78.0445 5.76077 78.4549 5.76077V5.09091H72.7777V5.76077H73.1539C73.4959 5.76077 73.7011 5.82775 73.8379 5.92823C73.9747 6.02871 74.0431 6.22967 74.0431 6.46412C74.0431 6.79905 73.9063 7.13397 73.6327 7.5024C73.3591 7.83732 72.9487 8.27273 72.4015 8.77512L68.6395 12.3589H68.5369V8.10527C68.5369 7.5024 68.5711 7.0335 68.6395 6.69857C68.7079 6.36364 68.9131 6.12919 69.2209 5.99522C69.5629 5.86125 70.0759 5.79426 70.7941 5.79426V5.1244H64.0909V5.79426C64.8433 5.79426 65.3563 5.86125 65.6983 5.99522C66.0061 6.12919 66.2113 6.36364 66.2797 6.69857C66.3481 7.0335 66.3823 7.5024 66.3823 8.10527V17.0813C66.3823 17.7512 66.3481 18.2536 66.2455 18.5885C66.1429 18.9234 65.9377 19.1244 65.6299 19.2249C65.3221 19.3254 64.8091 19.3923 64.0909 19.3923V20.0622H70.7941V19.3589H70.7599Z" fill="#FDEFF4"/>
    <path d="M93.7765 17.3493L88.2703 4.99042H87.3127L82.3879 16.4115C82.0117 17.2823 81.7039 17.9186 81.4645 18.3206C81.2251 18.7225 80.9515 19.0239 80.7121 19.1579C80.4385 19.2919 80.0965 19.3588 79.6519 19.3588V20.0287H84.5425V19.3588C83.9953 19.3588 83.6191 19.3253 83.3455 19.2249C83.1061 19.1244 82.9693 18.9234 82.9693 18.5885C82.9693 18.3875 83.0035 18.1866 83.0377 18.0191C83.1061 17.8517 83.1403 17.6507 83.2087 17.4832L84.2347 15.0718H90.1855L91.0747 17.1148C91.2457 17.4497 91.3483 17.7177 91.3825 17.9521C91.4509 18.1866 91.4509 18.3541 91.4509 18.5215C91.4509 18.7895 91.3825 18.9569 91.2115 19.0909C91.0405 19.2249 90.8353 19.2919 90.5959 19.3253C90.3565 19.3588 90.1171 19.3588 89.8777 19.3588V20.0287H96.1363V19.3588C95.5207 19.3588 95.0419 19.1914 94.7341 18.8899C94.4605 18.5885 94.1185 18.0861 93.7765 17.3493ZM87.3127 7.77032L89.8777 14.134H84.6109L87.2443 7.77032H87.3127Z" fill="#FDEFF4"/>
    <path d="M125.548 19.0909C125.138 19.2584 124.625 19.3254 124.044 19.3254C123.257 19.3254 122.573 19.2249 122.026 19.0239C121.479 18.823 121 18.4545 120.658 17.8852C120.282 17.3158 119.974 16.5455 119.666 15.4737H118.948L119.153 20.3971H119.871C119.871 20.1627 119.94 19.9952 120.076 19.8612C120.213 19.7273 120.35 19.6603 120.487 19.6603C120.658 19.6603 120.897 19.7273 121.205 19.8278C121.479 19.9282 121.889 20.0622 122.402 20.1627C122.915 20.2632 123.565 20.3301 124.351 20.3301C125.241 20.3301 126.061 20.1627 126.78 19.8612C127.498 19.5598 128.045 19.0909 128.455 18.488C128.866 17.8852 129.071 17.1483 129.071 16.244C129.071 15.5742 128.934 14.9713 128.695 14.5024C128.455 14.0335 128.113 13.5981 127.669 13.2297C127.258 12.8612 126.78 12.5263 126.267 12.2584C125.754 11.9569 125.241 11.689 124.728 11.3876C124.146 11.0526 123.599 10.7177 123.086 10.4163C122.573 10.0813 122.128 9.74641 121.821 9.3445C121.479 8.94258 121.342 8.47369 121.342 7.90431C121.342 7.20096 121.547 6.66507 121.992 6.29665C122.436 5.92823 123.052 5.76077 123.838 5.76077C125.001 5.76077 125.89 6.02871 126.403 6.63158C126.951 7.23445 127.395 8.17225 127.703 9.44498H128.387L128.216 4.88995H127.6C127.532 5.1244 127.464 5.29187 127.327 5.39235C127.224 5.49282 127.053 5.52632 126.882 5.52632C126.711 5.52632 126.506 5.45933 126.267 5.35885C126.027 5.22488 125.719 5.1244 125.343 4.99043C124.967 4.88995 124.42 4.82297 123.702 4.82297C122.881 4.82297 122.163 4.95694 121.479 5.25837C120.829 5.55981 120.282 5.96172 119.871 6.49761C119.461 7.03349 119.256 7.70335 119.256 8.50718C119.256 9.31101 119.427 9.94737 119.803 10.5167C120.179 11.0526 120.624 11.5215 121.205 11.9234C121.786 12.3254 122.368 12.6938 122.983 13.0287C123.633 13.3636 124.215 13.7321 124.83 14.067C125.412 14.4019 125.89 14.8038 126.267 15.2392C126.643 15.6746 126.848 16.244 126.848 16.9139C126.848 17.4833 126.745 17.9522 126.506 18.3206C126.301 18.6555 125.993 18.9234 125.548 19.0909Z" fill="#FDEFF4"/>
    <path d="M109.474 15.6077H108.722C108.483 16.244 108.277 16.8134 108.072 17.2488C107.867 17.6842 107.628 18.0526 107.354 18.3206C107.08 18.5885 106.67 18.7895 106.191 18.89C105.712 18.9904 105.097 19.0574 104.31 19.0574H103.25C102.566 19.0574 102.087 18.9904 101.848 18.823C101.608 18.6555 101.472 18.3541 101.472 17.8517V8.00479C101.472 7.40192 101.54 6.96651 101.643 6.63158C101.745 6.29665 101.985 6.0957 102.327 5.96173C102.669 5.82775 103.147 5.76077 103.763 5.76077V5.09091H97.2307V5.76077C97.8463 5.76077 98.3251 5.82775 98.5987 5.92823C98.9065 6.0622 99.1117 6.26316 99.1801 6.59809C99.2827 6.93302 99.3169 7.36842 99.3169 7.97129V17.2488C99.3169 17.8517 99.2827 18.2871 99.1801 18.5885C99.0775 18.89 98.9065 19.0909 98.5987 19.1914C98.2909 19.2919 97.8463 19.3589 97.2307 19.3589V20.0287H108.756L109.474 15.6077Z" fill="#FDEFF4"/>
    <path d="M144.598 18.9234C144.29 18.622 143.948 18.0861 143.606 17.3493L138.1 4.99042H137.142L132.217 16.4115C131.841 17.2823 131.533 17.9186 131.294 18.3206C131.055 18.7225 130.781 19.0239 130.542 19.1579C130.268 19.2919 129.926 19.3588 129.481 19.3588V20.0287H134.372V19.3588C133.825 19.3588 133.449 19.3253 133.175 19.2249C132.936 19.1244 132.799 18.9234 132.799 18.5885C132.799 18.3875 132.833 18.1866 132.867 18.0191C132.936 17.8517 132.97 17.6507 133.038 17.4832L134.064 15.0718H140.015L140.904 17.1148C141.075 17.4497 141.178 17.7177 141.212 17.9521C141.28 18.1866 141.28 18.3541 141.28 18.5215C141.28 18.7895 141.212 18.9569 141.041 19.0909C140.87 19.2249 140.665 19.2919 140.425 19.3253C140.186 19.3588 139.947 19.3588 139.707 19.3588V20.0287H145.966V19.3588C145.384 19.3588 144.906 19.2249 144.598 18.9234ZM137.142 7.77032L139.707 14.134H134.44L137.074 7.77032H137.142Z" fill="#FDEFF4"/>
    <path d="M129.31 31.9856C129.242 31.9187 129.174 31.9187 129.105 31.9187C128.968 31.9187 128.832 32.0191 128.729 32.2201C128.524 32.5885 128.25 32.9234 127.977 33.2919C127.532 33.8612 127.156 34.1627 126.848 34.1627C126.711 34.1627 126.609 34.1292 126.54 34.0287C126.472 33.9617 126.438 33.8277 126.438 33.6938C126.438 33.1579 126.677 32.3541 127.156 31.2823C127.498 30.512 127.874 29.8421 128.284 29.2392C128.524 29.1723 128.729 29.1053 128.968 29.0383C129.789 28.8038 130.268 28.6699 130.371 28.7033C130.644 28.6699 130.781 28.6364 130.849 28.6029C130.952 28.5359 131.02 28.4354 131.02 28.3014C131.02 28.0335 130.849 27.866 130.507 27.866C130.2 27.866 129.721 27.9665 129.037 28.134C129.139 27.933 129.31 27.6986 129.55 27.3971C129.892 26.9282 130.063 26.6268 130.063 26.4593C130.063 26.3923 130.029 26.2919 129.96 26.2249C129.892 26.1244 129.789 26.0909 129.721 26.0909C129.618 26.0909 129.481 26.1579 129.345 26.3254C129.242 26.4258 129.037 26.6603 128.763 27.0287C128.284 27.6986 127.908 28.201 127.703 28.5694C127.429 28.6699 127.19 28.7034 127.053 28.7368C126.643 28.8038 126.403 28.8373 126.369 28.8708C126.198 28.9713 126.096 29.0718 126.096 29.2392C126.096 29.3732 126.164 29.4737 126.301 29.5742C126.403 29.6411 126.506 29.6746 126.643 29.6746C126.745 29.6746 126.848 29.6411 127.019 29.6077C126.54 30.5455 126.267 31.1148 126.13 31.3493C125.685 32.3206 125.48 33.1914 125.48 33.9282C125.48 34.2632 125.548 34.5311 125.685 34.6986C125.89 35 126.164 35.134 126.472 35.134C127.053 35.134 127.737 34.6651 128.455 33.7273C129.071 32.9569 129.345 32.4545 129.345 32.2201C129.379 32.0861 129.379 32.0526 129.31 31.9856Z" fill="#FDEFF4"/>
    <path d="M76.3003 32.0861C76.1635 32.0861 76.0267 32.1866 75.8557 32.3876C74.8297 33.5598 73.9405 34.1292 73.1539 34.1292C72.8119 34.1292 72.5383 34.0287 72.4015 33.7943C72.3331 33.6938 72.2989 33.5933 72.2989 33.4593V33.2919C73.5643 32.9235 74.4877 32.2536 75.1375 31.2823C75.4453 30.8134 75.5821 30.4115 75.5821 30.1101C75.5821 29.9091 75.5137 29.7416 75.3427 29.6077C75.2059 29.5072 75.0691 29.4737 74.8981 29.4737C74.3167 29.4737 73.5985 29.8756 72.8119 30.6794C71.8201 31.6507 71.3413 32.6555 71.3413 33.6938C71.3413 34.0622 71.4439 34.3637 71.6149 34.5981C71.8885 34.8995 72.2305 35.067 72.7093 35.067C73.1539 35.067 73.6669 34.933 74.1799 34.6316C74.6929 34.3637 75.2059 33.9952 75.6847 33.5598C76.2661 32.9904 76.5739 32.5885 76.5739 32.3541C76.5739 32.3206 76.5397 32.2536 76.5055 32.2201C76.4371 32.1196 76.3687 32.0861 76.3003 32.0861ZM73.8379 30.7464C74.1457 30.512 74.3509 30.378 74.5219 30.378C74.6245 30.378 74.6929 30.445 74.6929 30.5455C74.6929 30.6459 74.6587 30.7799 74.5561 30.9474C74.3167 31.3493 73.9747 31.7177 73.5301 32.0526C73.2907 32.2201 72.9487 32.3876 72.5041 32.555C72.8461 31.7847 73.2907 31.1818 73.8379 30.7464Z" fill="#FDEFF4"/>
    <path d="M72.1963 26.3254C71.6149 26.7943 70.9651 27.1627 70.2127 27.4306C69.8023 27.5646 69.5971 27.7656 69.5971 27.9665C69.5971 28.067 69.6313 28.1675 69.6997 28.2345C69.8023 28.3349 69.9391 28.4019 70.0759 28.4019C70.2811 28.4019 70.6231 28.3015 71.0335 28.1005C71.8885 27.6651 72.6067 27.1292 73.2565 26.4928C73.9405 25.7895 74.2483 25.1196 74.2483 24.5168C74.2483 24.1148 74.0773 23.8134 73.7695 23.6125C73.5301 23.4115 73.1881 23.3445 72.8461 23.3445C72.2647 23.3445 71.6833 23.4785 71.1019 23.7464C70.3837 24.0814 69.6997 24.4833 69.0841 25.0192C67.9213 26.0239 67.3741 27.0622 67.3741 28.201C67.3741 28.6699 67.5109 29.1723 67.8187 29.6747C68.0581 30.1101 68.4001 30.6125 68.7421 31.1818C68.9815 31.5503 69.1525 31.8182 69.2893 32.0526C69.3919 32.2871 69.4603 32.5215 69.4603 32.823C69.4603 33.2919 69.2551 33.6603 68.8789 33.9617C68.2633 34.4306 67.5451 34.6651 66.7243 34.6651C66.3139 34.6651 65.9719 34.5646 65.6983 34.3971C65.3905 34.1627 65.2195 33.8613 65.2195 33.4928C65.2195 32.9904 65.4931 32.6555 66.0061 32.4881C66.3139 32.3876 66.4849 32.2201 66.4849 32.0192C66.4849 31.7512 66.3139 31.6172 65.9719 31.6172C65.8351 31.6172 65.6641 31.6507 65.4589 31.7512C65.1511 31.8517 64.9117 32.0192 64.6723 32.2536C64.2961 32.622 64.1251 33.0574 64.1251 33.5933C64.1251 34.0622 64.3303 34.4976 64.7065 34.866C65.2195 35.3349 65.9035 35.5694 66.7927 35.5694C67.6819 35.5694 68.5027 35.3349 69.2209 34.866C70.0417 34.3302 70.4863 33.6938 70.4863 32.957C70.4863 32.5885 70.3837 32.1866 70.1443 31.7512C69.9391 31.3828 69.6997 31.0144 69.4261 30.579C69.1183 30.1436 68.8789 29.7416 68.7079 29.4067C68.4685 28.9713 68.3659 28.5694 68.3659 28.134C68.3659 27.5646 68.5711 26.9952 69.0157 26.4259C69.5287 25.756 70.1785 25.1866 71.0677 24.7512C71.7175 24.4163 72.2647 24.2823 72.6751 24.2823C72.8461 24.2823 72.9829 24.3158 73.0855 24.4163C73.2223 24.5168 73.3249 24.6842 73.3249 24.8517C73.3249 25.1866 72.9487 25.7225 72.1963 26.3254Z" fill="#FDEFF4"/>
    <path d="M134.475 32.1866C134.406 32.1196 134.372 32.0861 134.304 32.0861C134.167 32.0861 134.03 32.1866 133.859 32.3876C132.833 33.5598 131.944 34.1292 131.157 34.1292C130.815 34.1292 130.542 34.0287 130.405 33.7943C130.336 33.6938 130.302 33.5933 130.302 33.4593V33.2919C131.568 32.9235 132.491 32.2536 133.141 31.2823C133.449 30.8134 133.585 30.4115 133.585 30.1101C133.585 29.9091 133.517 29.7416 133.346 29.6077C133.209 29.5072 133.072 29.4737 132.901 29.4737C132.32 29.4737 131.602 29.8756 130.815 30.6794C129.823 31.6507 129.345 32.6555 129.345 33.6938C129.345 34.0622 129.447 34.3637 129.618 34.5981C129.892 34.8995 130.234 35.067 130.713 35.067C131.157 35.067 131.67 34.933 132.183 34.6316C132.696 34.3637 133.209 33.9952 133.688 33.5598C134.269 32.9904 134.577 32.5885 134.577 32.3541C134.543 32.2871 134.543 32.2536 134.475 32.1866ZM131.841 30.7464C132.149 30.512 132.354 30.378 132.525 30.378C132.628 30.378 132.696 30.445 132.696 30.5455C132.696 30.6459 132.662 30.7799 132.559 30.9474C132.32 31.3493 131.978 31.7177 131.533 32.0526C131.294 32.2201 130.952 32.3876 130.507 32.555C130.849 31.7847 131.294 31.1818 131.841 30.7464Z" fill="#FDEFF4"/>
    <path d="M144.974 29.4067C144.803 29.2392 144.598 29.1722 144.324 29.1722C143.914 29.1722 143.469 29.3397 143.025 29.6411C142.341 30.1435 141.759 30.8134 141.28 31.7177C140.836 32.5215 140.631 33.2584 140.631 33.9617C140.631 34.2297 140.699 34.4641 140.802 34.6651C140.973 34.9665 141.246 35.134 141.588 35.134C141.964 35.134 142.375 34.8995 142.751 34.4306C142.956 34.1962 143.161 33.8947 143.367 33.5263C143.332 33.7942 143.332 33.9952 143.332 34.1292C143.332 34.4976 143.435 34.799 143.64 35.0335C143.88 35.3349 144.153 35.4689 144.495 35.4689C144.632 35.4689 144.735 35.4354 144.837 35.3349C144.94 35.2679 144.974 35.1675 144.974 35.067C144.974 34.8995 144.906 34.7655 144.735 34.6986C144.529 34.5981 144.393 34.5311 144.358 34.4976C144.187 34.3301 144.119 34.1292 144.119 33.8612C144.119 33.5598 144.222 33.1244 144.393 32.5885C144.564 32.0861 144.769 31.7177 144.94 31.4163C145.111 31.1148 145.213 30.9139 145.213 30.7799C145.213 30.6794 145.179 30.5789 145.077 30.445C145.179 30.2105 145.248 30.0096 145.248 29.8756C145.179 29.7081 145.111 29.5407 144.974 29.4067ZM144.256 30.8134C144.153 30.9474 143.982 31.2488 143.777 31.6842C143.435 32.3541 143.161 32.8564 142.956 33.1914C142.546 33.7942 142.204 34.1292 141.93 34.1292C141.828 34.1292 141.725 34.0957 141.657 33.9952C141.588 33.8947 141.554 33.7942 141.554 33.6603C141.554 33.0574 141.862 32.2871 142.477 31.3828C143.025 30.5789 143.538 30.177 144.016 30.177C144.119 30.177 144.222 30.2105 144.29 30.2775C144.393 30.3445 144.461 30.445 144.529 30.5789C144.393 30.6459 144.29 30.7464 144.256 30.8134Z" fill="#FDEFF4"/>
    <path d="M141.007 31.0813C141.007 31.0143 140.973 30.9474 140.938 30.9139C140.904 30.8804 140.836 30.8469 140.802 30.8469C140.733 30.8469 140.631 30.8804 140.528 30.9474C139.878 31.3828 139.434 31.5837 139.16 31.5837C138.989 31.5837 138.921 31.5167 138.921 31.3828C138.921 31.1483 139.228 30.7799 139.878 30.2775C140.118 30.0765 140.22 29.9426 140.22 29.8421C140.22 29.7751 140.186 29.7081 140.152 29.6411C140.049 29.5072 139.981 29.4402 139.878 29.4402C139.844 29.4402 139.741 29.4737 139.57 29.5742C139.263 29.7751 138.955 29.9761 138.647 30.177C137.86 30.7799 137.142 31.4163 136.561 32.0526C136.698 31.6842 136.937 31.3493 137.211 30.9809C137.518 30.6124 137.689 30.4115 137.689 30.378C137.826 30.2105 137.86 30.0765 137.86 30.0096C137.86 29.9426 137.826 29.8421 137.724 29.7751C137.655 29.7416 137.587 29.7081 137.484 29.7081C137.245 29.7081 136.937 29.9426 136.595 30.378C136.014 31.1148 135.466 32.1531 134.919 33.4928C134.543 34.3971 134.372 34.933 134.372 35.134C134.372 35.3349 134.475 35.4689 134.714 35.4689C134.919 35.4689 135.09 35.3349 135.261 35.0335C135.637 34.2966 136.014 33.6603 136.39 33.1579C137.04 32.3206 137.621 31.7512 138.134 31.4163C137.997 31.6172 137.929 31.7847 137.929 31.9187C137.929 32.1531 137.997 32.2871 138.134 32.3876C138.305 32.488 138.476 32.555 138.681 32.555C139.16 32.555 139.673 32.3541 140.22 31.9521C140.733 31.5502 141.007 31.2823 141.007 31.0813Z" fill="#FDEFF4"/>
    <path d="M82.6273 31.6842C82.4905 31.6842 82.3537 31.8182 82.1827 32.0526C81.3961 33.2249 80.8147 33.7943 80.5069 33.7943C80.3359 33.7943 80.2675 33.7273 80.2675 33.5598C80.2675 33.3923 80.3701 33.0574 80.6095 32.5885C80.8831 32.0526 81.2593 31.4498 81.7723 30.7799C82.0459 30.445 82.1827 30.177 82.1827 30.0096C82.1827 29.8756 82.1143 29.7751 82.0117 29.6746C81.9091 29.5742 81.8065 29.5407 81.7039 29.5407C81.4645 29.5407 81.0199 29.7416 80.4385 30.1435C79.9939 30.445 79.5151 30.8469 79.0705 31.3158C79.2415 30.8469 79.6519 29.9426 80.3701 28.6699C81.0199 27.4641 81.7039 26.3254 82.3537 25.3206C82.5589 25.0191 82.6615 24.8182 82.6615 24.6507C82.6615 24.5502 82.6273 24.4498 82.5589 24.3493C82.4905 24.2488 82.3879 24.1818 82.2853 24.1818C82.1827 24.1818 82.0459 24.2488 81.9433 24.3493C81.8407 24.4498 81.7039 24.6842 81.4987 24.9857C80.7121 26.2919 79.9939 27.5646 79.3783 28.7703C78.7285 29.9761 78.0445 31.4498 77.3263 33.1914C76.9159 34.1292 76.7449 34.6986 76.7449 34.8995C76.7449 35.0335 76.7791 35.134 76.8475 35.201C76.9159 35.2679 77.0185 35.3349 77.1211 35.3349C77.2921 35.3349 77.4289 35.201 77.4973 34.9665C78.3865 32.89 79.4467 31.5502 80.7121 30.9139C80.2333 31.6842 79.9597 32.1531 79.8913 32.3206C79.5151 33.0239 79.3099 33.6268 79.3099 34.1627C79.3099 34.3301 79.3441 34.4976 79.4125 34.6316C79.5151 34.866 79.7203 34.9665 79.9939 34.9665C80.2333 34.9665 80.5411 34.866 80.8489 34.6316C81.2935 34.3302 81.7381 33.8613 82.1485 33.2919C82.6273 32.622 82.8667 32.1866 82.8667 31.9187C82.7983 31.7847 82.7299 31.6842 82.6273 31.6842Z" fill="#FDEFF4"/>
    <path d="M118.401 29.4067C118.23 29.2392 118.024 29.1722 117.751 29.1722C117.34 29.1722 116.896 29.3397 116.451 29.6411C115.767 30.1435 115.186 30.8134 114.707 31.7177C114.262 32.5215 114.057 33.2584 114.057 33.9617C114.057 34.2297 114.126 34.4641 114.228 34.6651C114.399 34.9665 114.673 35.134 115.015 35.134C115.391 35.134 115.801 34.8995 116.178 34.4306C116.383 34.1962 116.588 33.8947 116.793 33.5263C116.759 33.7942 116.759 33.9952 116.759 34.1292C116.759 34.4976 116.862 34.799 117.067 35.0335C117.306 35.3349 117.58 35.4689 117.922 35.4689C118.059 35.4689 118.161 35.4354 118.264 35.3349C118.366 35.2679 118.401 35.1675 118.401 35.067C118.401 34.8995 118.332 34.7655 118.161 34.6986C117.956 34.5981 117.819 34.5311 117.785 34.4976C117.614 34.3301 117.546 34.1292 117.546 33.8612C117.546 33.5598 117.648 33.1244 117.819 32.5885C117.99 32.0861 118.195 31.7177 118.366 31.4163C118.537 31.1148 118.64 30.9139 118.64 30.7799C118.64 30.6794 118.606 30.5789 118.503 30.445C118.606 30.2105 118.674 30.0096 118.674 29.8756C118.606 29.7081 118.537 29.5407 118.401 29.4067ZM117.648 30.8134C117.546 30.9474 117.375 31.2488 117.169 31.6842C116.827 32.3541 116.554 32.8564 116.349 33.1914C115.938 33.7942 115.596 34.1292 115.323 34.1292C115.22 34.1292 115.117 34.0957 115.049 33.9952C114.981 33.8947 114.946 33.7942 114.946 33.6603C114.946 33.0574 115.254 32.2871 115.87 31.3828C116.417 30.5789 116.93 30.177 117.409 30.177C117.511 30.177 117.614 30.2105 117.682 30.2775C117.785 30.3445 117.853 30.445 117.922 30.5789C117.819 30.6459 117.717 30.7464 117.648 30.8134Z" fill="#FDEFF4"/>
    <path d="M114.673 27.5311C114.946 27.2297 115.083 26.9282 115.083 26.6938C115.083 26.4258 114.946 26.2584 114.673 26.2584C114.468 26.2584 114.262 26.3923 114.023 26.6268C113.681 26.9617 113.544 27.2631 113.544 27.5311C113.544 27.6651 113.578 27.7655 113.647 27.8325C113.715 27.933 113.818 27.9665 113.955 27.9665C114.16 27.9665 114.399 27.799 114.673 27.5311Z" fill="#FDEFF4"/>
    <path d="M105.234 26.3254C104.652 26.7943 104.002 27.1627 103.25 27.4306C102.84 27.5646 102.634 27.7656 102.634 27.9665C102.634 28.067 102.669 28.1675 102.737 28.2345C102.84 28.3349 102.976 28.4019 103.113 28.4019C103.318 28.4019 103.66 28.3015 104.071 28.1005C104.926 27.6651 105.644 27.1292 106.294 26.4928C106.978 25.7895 107.286 25.1196 107.286 24.5168C107.286 24.1148 107.115 23.8134 106.807 23.6125C106.567 23.4115 106.225 23.3445 105.883 23.3445C105.302 23.3445 104.721 23.4785 104.139 23.7464C103.421 24.0814 102.737 24.4833 102.121 25.0192C100.959 26.0239 100.411 27.0622 100.411 28.201C100.411 28.6699 100.548 29.1723 100.856 29.6747C101.095 30.1101 101.437 30.6125 101.779 31.1818C102.019 31.5503 102.19 31.8182 102.327 32.0526C102.429 32.2871 102.498 32.5215 102.498 32.823C102.498 33.2919 102.292 33.6603 101.916 33.9617C101.301 34.4306 100.582 34.6651 99.7616 34.6651C99.3512 34.6651 99.0092 34.5646 98.7356 34.3971C98.4278 34.1627 98.2567 33.8613 98.2567 33.4928C98.2567 32.9904 98.5304 32.6555 99.0434 32.4881C99.3512 32.3876 99.5222 32.2201 99.5222 32.0192C99.5222 31.7512 99.3512 31.6172 99.0092 31.6172C98.8724 31.6172 98.7014 31.6507 98.4962 31.7512C98.1884 31.8517 97.949 32.0192 97.7096 32.2536C97.3334 32.622 97.1624 33.0574 97.1624 33.5933C97.1624 34.0622 97.3675 34.4976 97.7437 34.866C98.2567 35.3349 98.9408 35.5694 99.83 35.5694C100.719 35.5694 101.54 35.3349 102.258 34.866C103.079 34.3302 103.524 33.6938 103.524 32.957C103.524 32.5885 103.421 32.1866 103.182 31.7512C102.976 31.3828 102.737 31.0144 102.463 30.579C102.156 30.1436 101.916 29.7416 101.745 29.4067C101.506 28.9713 101.403 28.5694 101.403 28.134C101.403 27.5646 101.608 26.9952 102.053 26.4259C102.566 25.756 103.216 25.1866 104.105 24.7512C104.755 24.4163 105.302 24.2823 105.712 24.2823C105.883 24.2823 106.02 24.3158 106.123 24.4163C106.26 24.5168 106.362 24.6842 106.362 24.8517C106.328 25.1866 105.952 25.7225 105.234 26.3254Z" fill="#FDEFF4"/>
    <path d="M113.578 31.7847C113.442 31.7847 113.305 31.8852 113.168 32.1196C112.826 32.622 112.484 33.0574 112.142 33.3923C111.834 33.6938 111.458 33.9952 110.979 34.2966C111.15 33.8947 111.424 33.3254 111.766 32.5885C112.21 31.7177 112.552 31.1148 112.792 30.7799C113.168 30.244 113.339 29.9426 113.339 29.8421C113.339 29.7751 113.305 29.7081 113.236 29.6077C113.168 29.5407 113.065 29.5072 112.963 29.5072C112.655 29.5072 112.347 29.8421 111.971 30.4785C111.732 30.8804 111.219 31.9187 110.466 33.5598L109.885 34.7321L109.714 35.1005C108.209 35.7033 107.046 36.4402 106.26 37.378C105.61 38.1483 105.268 38.8517 105.268 39.488C105.268 39.7225 105.336 39.9569 105.507 40.1244C105.747 40.3923 106.02 40.5263 106.396 40.5263C106.704 40.5263 106.978 40.4593 107.251 40.2919C107.662 40.0574 108.004 39.756 108.312 39.3876C108.825 38.7177 109.338 37.8134 109.851 36.6746C110.124 36.0383 110.329 35.6364 110.466 35.4019C111.834 34.6316 112.826 33.7943 113.476 32.8899C113.749 32.5215 113.852 32.2536 113.852 32.0526C113.852 31.9856 113.818 31.9187 113.784 31.8517C113.681 31.8182 113.647 31.7847 113.578 31.7847ZM107.32 39.2201C107.012 39.5215 106.738 39.6555 106.499 39.6555C106.396 39.6555 106.294 39.622 106.225 39.555C106.157 39.488 106.123 39.3876 106.123 39.2536C106.123 38.7177 106.499 38.0813 107.286 37.3445C107.97 36.7081 108.585 36.2727 109.167 36.0718C108.448 37.7129 107.833 38.7512 107.32 39.2201Z" fill="#FDEFF4"/>
    <path d="M93.2977 27.799C92.9899 27.799 92.5111 27.8995 91.8271 28.067C91.9297 27.866 92.1007 27.6316 92.3401 27.3301C92.6821 26.8612 92.8531 26.5598 92.8531 26.3923C92.8531 26.3254 92.8189 26.2249 92.7505 26.1579C92.6821 26.0574 92.5795 26.0239 92.5111 26.0239C92.4085 26.0239 92.2717 26.0909 92.1349 26.2584C92.0323 26.3589 91.8271 26.5933 91.5535 26.9617C91.0747 27.6316 90.6985 28.134 90.4933 28.5024C90.2197 28.6029 89.9803 28.6364 89.8435 28.6699C89.4331 28.7368 89.1937 28.7703 89.1595 28.8038C88.9885 28.9043 88.8859 29.0048 88.8859 29.1723C88.8859 29.3062 88.9543 29.4067 89.0911 29.5072C89.1937 29.5742 89.2963 29.6077 89.4331 29.6077C89.5357 29.6077 89.6383 29.5742 89.8093 29.5407C89.3305 30.4785 89.0569 31.0479 88.9201 31.2823C88.4755 32.2536 88.2703 33.1244 88.2703 33.8613C88.2703 34.1962 88.3387 34.4641 88.4755 34.6316C88.6807 34.933 88.9543 35.067 89.2621 35.067C89.8435 35.067 90.5275 34.5981 91.2457 33.6603C91.8613 32.89 92.1349 32.3876 92.1349 32.1531C92.1349 32.0861 92.1007 32.0526 92.0665 31.9857C91.9981 31.9187 91.9297 31.9187 91.8613 31.9187C91.7245 31.9187 91.5877 32.0191 91.4851 32.2201C91.2799 32.5885 91.0063 32.9235 90.7327 33.2919C90.2881 33.8613 89.9119 34.1627 89.6041 34.1627C89.4673 34.1627 89.3647 34.1292 89.2963 34.0287C89.2279 33.9617 89.1937 33.8278 89.1937 33.6938C89.1937 33.1579 89.4331 32.3541 89.9119 31.2823C90.2539 30.512 90.6301 29.8421 91.0405 29.2392C91.2799 29.1723 91.4851 29.1053 91.7245 29.0383C92.5453 28.8038 93.0241 28.6699 93.1267 28.7034C93.4003 28.6699 93.5371 28.6364 93.6055 28.6029C93.7081 28.5359 93.7765 28.4354 93.7765 28.3014C93.8107 27.933 93.6397 27.799 93.2977 27.799Z" fill="#FDEFF4"/>
    <path d="M107.183 34.5981C107.696 34.3302 108.209 33.9617 108.688 33.5263C109.269 32.957 109.577 32.555 109.577 32.3206C109.577 32.2871 109.543 32.2201 109.509 32.1866C109.44 32.1196 109.406 32.0861 109.338 32.0861C109.201 32.0861 109.064 32.1866 108.893 32.3876C107.867 33.5598 106.978 34.1292 106.191 34.1292C105.849 34.1292 105.576 34.0287 105.439 33.7943C105.37 33.6938 105.336 33.5933 105.336 33.4593V33.2919C106.602 32.9235 107.525 32.2536 108.175 31.2823C108.483 30.8134 108.619 30.4115 108.619 30.1101C108.619 29.9091 108.551 29.7416 108.38 29.6077C108.243 29.5072 108.106 29.4737 107.935 29.4737C107.354 29.4737 106.636 29.8756 105.849 30.6794C104.857 31.6507 104.379 32.6555 104.379 33.6938C104.379 34.0622 104.481 34.3637 104.652 34.5981C104.926 34.8995 105.268 35.067 105.747 35.067C106.157 35.0335 106.636 34.8995 107.183 34.5981ZM106.841 30.7464C107.149 30.512 107.354 30.378 107.525 30.378C107.628 30.378 107.696 30.445 107.696 30.5455C107.696 30.6459 107.662 30.7799 107.559 30.9474C107.32 31.3493 106.978 31.7177 106.533 32.0526C106.294 32.2201 105.952 32.3876 105.507 32.555C105.849 31.7847 106.294 31.1818 106.841 30.7464Z" fill="#FDEFF4"/>
    <path d="M87.1075 29.4067C86.9365 29.2392 86.7313 29.1722 86.4577 29.1722C86.0473 29.1722 85.6027 29.3397 85.1581 29.6411C84.4741 30.1435 83.8927 30.8134 83.4139 31.7177C82.9693 32.5215 82.7641 33.2584 82.7641 33.9617C82.7641 34.2297 82.8325 34.4641 82.9351 34.6651C83.1061 34.9665 83.3797 35.134 83.7217 35.134C84.0979 35.134 84.5083 34.8995 84.8845 34.4306C85.0897 34.1962 85.2949 33.8947 85.5001 33.5263C85.4659 33.7942 85.4659 33.9952 85.4659 34.1292C85.4659 34.4976 85.5685 34.799 85.7737 35.0335C86.0131 35.3349 86.2867 35.4689 86.6287 35.4689C86.7655 35.4689 86.8681 35.4354 86.9707 35.3349C87.0733 35.2679 87.1075 35.1675 87.1075 35.067C87.1075 34.8995 87.0391 34.7655 86.8681 34.6986C86.6629 34.5981 86.5261 34.5311 86.4919 34.4976C86.3209 34.3301 86.2525 34.1292 86.2525 33.8612C86.2525 33.5598 86.3551 33.1244 86.5261 32.5885C86.6971 32.0861 86.9023 31.7177 87.0733 31.4163C87.2443 31.1148 87.3469 30.9139 87.3469 30.7799C87.3469 30.6794 87.3127 30.5789 87.2101 30.445C87.3127 30.2105 87.3811 30.0096 87.3811 29.8756C87.3127 29.7081 87.2443 29.5407 87.1075 29.4067ZM86.3551 30.8134C86.2525 30.9474 86.0815 31.2488 85.8763 31.6842C85.5343 32.3541 85.2607 32.8564 85.0555 33.1914C84.6451 33.7942 84.3031 34.1292 84.0295 34.1292C83.9269 34.1292 83.8243 34.0957 83.7559 33.9952C83.6875 33.9282 83.6533 33.7942 83.6533 33.6603C83.6533 33.0574 83.9611 32.2871 84.5767 31.3828C85.1239 30.5789 85.6369 30.177 86.1157 30.177C86.2183 30.177 86.3209 30.2105 86.3893 30.2775C86.4919 30.3445 86.5603 30.445 86.6287 30.5789C86.4919 30.6459 86.4235 30.7464 86.3551 30.8134Z" fill="#FDEFF4"/>
    <path d="M124.796 31.6842C124.659 31.6842 124.522 31.8182 124.351 32.0526C123.565 33.2249 122.983 33.7943 122.676 33.7943C122.505 33.7943 122.436 33.7273 122.436 33.5598C122.436 33.3923 122.539 33.0574 122.778 32.5885C123.052 32.0526 123.428 31.4498 123.941 30.7799C124.215 30.445 124.351 30.177 124.351 30.0096C124.351 29.8756 124.283 29.7751 124.18 29.6746C124.078 29.5742 123.975 29.5407 123.873 29.5407C123.633 29.5407 123.189 29.7416 122.607 30.1435C122.163 30.445 121.684 30.8469 121.239 31.3158C121.41 30.8469 121.821 29.9426 122.539 28.6699C123.189 27.4641 123.873 26.3254 124.522 25.3206C124.728 25.0191 124.83 24.8182 124.83 24.6507C124.83 24.5502 124.796 24.4498 124.728 24.3493C124.659 24.2488 124.557 24.1818 124.454 24.1818C124.351 24.1818 124.215 24.2488 124.112 24.3493C124.009 24.4498 123.873 24.6842 123.667 24.9857C122.881 26.2919 122.163 27.5646 121.547 28.7703C120.897 29.9761 120.213 31.4498 119.495 33.1914C119.085 34.1292 118.914 34.6986 118.914 34.8995C118.914 35.0335 118.948 35.134 119.016 35.201C119.085 35.2679 119.187 35.3349 119.29 35.3349C119.461 35.3349 119.598 35.201 119.666 34.9665C120.555 32.89 121.615 31.5502 122.881 30.9139C122.402 31.6842 122.128 32.1531 122.06 32.3206C121.684 33.0239 121.479 33.6268 121.479 34.1627C121.479 34.3301 121.513 34.4976 121.581 34.6316C121.684 34.866 121.889 34.9665 122.163 34.9665C122.402 34.9665 122.71 34.866 123.018 34.6316C123.462 34.3302 123.907 33.8613 124.317 33.2919C124.796 32.622 125.035 32.1866 125.035 31.9187C125.001 31.7847 124.933 31.6842 124.796 31.6842Z" fill="#FDEFF4"/>
    <path d="M31.6692 3.41628H30.9852V2.14355H41.6899V3.41628C40.8691 3.44977 40.1851 3.55025 39.6037 3.75121C39.0223 3.95216 38.4751 4.2536 37.9279 4.65551C37.3807 5.05743 36.7309 5.6268 35.9443 6.33015L30.1302 10.5168L27.0864 12.7608C27.0864 12.7608 32.0112 7.26795 32.5584 6.63159C33.0714 5.96173 33.345 5.32537 33.345 4.7225C33.345 4.2536 33.2082 3.91867 32.9688 3.71771C32.6952 3.51676 32.2848 3.41628 31.6692 3.41628ZM55.1305 25.5885C55.1305 27.2297 54.7543 28.6364 53.9677 29.7751C53.1811 30.9139 52.1551 31.7847 50.7871 32.3541C49.6243 32.8565 48.3247 33.1579 46.8883 33.2249C46.9225 33.5598 46.9567 33.8613 46.9567 34.2297C46.9567 35.8708 46.5805 37.2775 45.7939 38.4163C45.0073 39.555 43.9813 40.4258 42.6133 40.9952C41.2795 41.5646 39.7747 41.866 38.0647 41.866C36.5599 41.866 35.3287 41.7656 34.371 41.5311C33.4134 41.3302 32.6952 41.0957 32.148 40.8947C31.6008 40.6938 31.1562 40.5598 30.8142 40.5598C30.5064 40.5598 30.267 40.6938 30.0276 40.9282C29.7882 41.1962 29.6514 41.5311 29.6514 41.9665H28.2834V32.7225C28.2834 28.4019 27.3258 25.2871 25.3422 23.1436C24.7608 22.5072 23.9058 22.0048 22.8798 21.5694C21.7512 21.1005 20.3832 20.6986 18.9126 20.3302C18.0576 20.1292 17.1684 19.9282 16.2792 19.7273C14.364 19.3254 12.312 18.8565 10.4652 18.2536C7.83181 17.4163 5.81401 16.0431 4.44601 14.201C3.249 12.5933 2.6334 10.6507 2.5992 8.64116C2.5992 6.86604 3.078 5.12441 3.96721 3.68422C4.89061 2.21054 6.19021 1.10527 7.62661 0.636373C9.30241 0.100487 10.8756 -0.100469 12.2778 0.100488C13.5774 0.267952 14.7402 0.736851 15.6978 1.50719C15.9372 1.70814 16.1766 1.9091 16.3818 2.14355H27.1548V3.14833C25.7868 3.14833 24.795 3.58374 24.1794 3.81819C23.5638 4.08613 23.1876 4.52154 23.0508 5.1579C22.914 5.79427 22.8456 6.66508 22.8456 7.80384V15.5742V17.2488V20.7321C24.1452 21.2345 25.2396 21.8373 25.9578 22.6412C27.1548 23.9474 28.0098 25.6555 28.5228 27.6986C28.899 29.2058 29.07 30.8469 29.07 32.7895C29.07 32.7895 30.3354 36.2727 31.0194 37.311C31.7034 38.3493 32.5926 39.0526 33.6186 39.4546C34.6446 39.823 35.9101 40.0239 37.3807 40.0239C38.4751 40.0239 39.4327 39.89 40.2193 39.5885C41.0059 39.2871 41.6215 38.8182 42.0661 38.1483C42.5107 37.4785 42.7159 36.6077 42.7159 35.5024C42.7159 34.4641 42.4765 33.5933 41.9977 32.8565C41.0059 30.4785 28.899 27.2632 27.9072 21.5024L23.0508 16.6794L24.7608 15.0048C25.2054 14.5694 25.9578 14.5694 26.4024 15.0048L28.8648 17.4163C29.0358 16.8804 29.3094 16.378 29.6514 15.9091C30.4038 14.9043 31.4298 14.134 32.661 13.5646C33.9264 13.0287 35.2944 12.7608 36.7993 12.7608H36.8335C36.7309 12.2249 36.6625 11.6555 36.6625 11.0526C36.6625 9.54546 37.0387 8.27274 37.7911 7.26795C38.5435 6.26317 39.5695 5.49283 40.8007 4.92345C42.0661 4.38757 43.4341 4.11963 44.9389 4.11963C46.2727 4.11963 47.2987 4.2201 48.0511 4.45455C48.7693 4.65551 49.3507 4.88996 49.7611 5.12441C50.1715 5.35886 50.5819 5.45934 50.9239 5.45934C51.2659 5.45934 51.5737 5.35886 51.7789 5.1914C51.9841 4.99044 52.1551 4.689 52.2919 4.2201H53.4205L53.7283 12.7608H52.4287C51.8131 10.3828 50.9923 8.64116 49.9663 7.5024C48.9403 6.36365 47.3329 5.79427 45.1099 5.82776C43.6393 5.82776 42.4765 6.16269 41.6557 6.83254C40.8349 7.5024 40.4245 8.50719 40.4245 9.8469C40.4245 10.9187 40.6981 11.823 41.3479 12.5598C42.9895 14.4019 45.3493 15.5407 45.3493 15.5407C45.8623 15.8421 46.3411 16.1435 46.8541 16.445C47.8117 16.9809 48.7693 17.5168 49.7611 18.0861C50.7529 18.622 51.6079 19.2249 52.4287 19.9282C53.2153 20.5981 53.8651 21.4019 54.3439 22.3397C54.8911 23.2105 55.1305 24.3158 55.1305 25.5885ZM18.9468 7.77034C18.9468 6.66508 18.8784 5.79427 18.7416 5.12441C18.6048 4.48805 18.2286 4.01915 17.613 3.7847C17.5788 3.7847 17.5446 3.75121 17.5104 3.75121C17.5788 3.91867 17.6814 4.08613 17.7498 4.28709C18.1602 5.35886 18.297 6.5646 18.126 7.73685C17.955 9.07656 17.5104 10.2153 16.8606 11.1531C16.3134 11.89 15.6294 12.4928 14.8086 12.9282C13.8168 13.4641 13.167 13.5981 12.0726 13.6651H12.0384C10.5336 13.6651 9.30241 12.4593 9.30241 10.9857C9.30241 9.51197 10.5336 8.30623 12.0384 8.30623C13.5432 8.30623 14.7744 9.51197 14.7744 10.9857C14.7744 11.3876 14.6718 11.7895 14.5008 12.1244C16.074 11.2536 16.9974 9.71293 17.271 7.60288C17.4762 6.06221 17.1 4.52154 16.3134 3.3158C16.0056 2.8469 15.6294 2.44499 15.219 2.11006C13.4406 0.669865 10.8414 0.435416 7.93441 1.37321C5.33521 2.24403 3.42001 5.29187 3.45421 8.64116C3.45421 12.7273 6.19021 16.0431 10.7388 17.5168C12.5514 18.1196 14.5692 18.555 16.5186 18.9904C17.3394 19.1914 18.1602 19.3589 18.9468 19.5598V7.77034ZM50.9923 26.8278C50.9923 25.5885 50.6503 24.5168 49.9321 23.7129C49.2139 22.8756 48.3247 22.1388 47.1961 21.5024C46.6831 21.201 46.1359 20.8995 45.5887 20.5981L43.7419 19.5598C42.5791 18.89 41.4505 18.2201 40.3903 17.4498C39.2959 16.7129 38.4409 15.8086 37.7569 14.8038C37.6885 14.7034 37.6201 14.5694 37.5517 14.4689C37.3807 14.4689 37.2097 14.4689 37.0387 14.4689C35.5681 14.4689 34.4052 14.8038 33.5844 15.4737C32.7636 16.1436 32.3532 17.1483 32.3532 18.488C32.3532 19.5598 32.661 20.4641 33.2766 21.201C33.8923 21.9713 34.6788 22.6412 35.6707 23.244C36.1495 23.5455 38.3383 24.8517 38.7829 25.0861C39.7405 25.622 40.6981 26.1579 41.6899 26.7273C42.6817 27.2632 43.5367 27.866 44.3575 28.5694C45.1441 29.2392 45.7939 30.0431 46.2727 30.9809C46.3411 31.1148 46.4095 31.2488 46.4779 31.3828C47.2645 31.3158 47.9485 31.1818 48.5299 30.9474C49.3165 30.6459 49.9321 30.177 50.3767 29.5072C50.7871 28.8038 50.9923 27.8995 50.9923 26.8278ZM25.821 26.6268C28.3518 32.0191 26.2998 37.8469 26.2998 37.8469C25.7526 32.4546 24.453 28.6029 24.0768 27.5311C25.308 31.0144 25.5816 37.8469 25.5816 37.8469C19.9386 29.7081 20.8962 21.5359 20.8962 21.5359C20.8962 21.5359 23.94 22.6412 25.821 26.6268ZM23.9742 27.2967C23.9742 27.2632 23.9742 27.2632 23.9742 27.2632C23.9742 27.2632 23.9742 27.2632 23.9742 27.2967ZM21.9564 33.7608C21.9564 33.7608 18.3996 28.9713 17.3394 25.9569C17.6472 26.8947 18.9126 30.177 21.4776 34.1292C21.4776 34.1292 21.3408 34.0287 21.1014 33.8613C20.7252 34.2967 18.9468 36.0718 13.509 36.5072C7.21621 37.0096 1.197 30.0096 1.197 30.0096C1.197 30.0096 7.07941 35.268 13.338 35.5359C18.7758 35.7369 20.6568 34.2632 21.033 33.8947C19.9044 33.0574 16.6212 30.4115 15.5952 26.2919C14.6718 22.6077 16.1424 20.2632 16.1424 20.2632C16.1424 20.2632 21.3066 25.2536 21.9564 33.7608ZM17.2368 25.7225C17.2368 25.689 17.2368 25.7225 17.2368 25.7225V25.7225ZM15.5952 29.7081C15.5952 29.7081 12.825 25.9569 12.0042 23.6459C12.2436 24.3158 13.2012 26.8947 15.219 30.0096C15.219 30.0096 11.6622 27.7991 10.7046 23.9139C9.98641 21.067 11.1492 19.2249 11.1492 19.2249C11.1492 19.2249 15.0822 23.1436 15.5952 29.7081ZM11.97 23.579C11.97 23.5455 11.97 23.512 11.9358 23.512C11.9358 23.4785 11.9358 23.512 11.97 23.579ZM3.1464 15.5072C4.75381 17.2153 6.25861 18.2871 7.28461 18.89C7.83181 19.2249 8.27641 19.4258 8.61841 19.5598C8.44741 19.6938 8.34481 19.8947 8.34481 20.1292C8.34481 20.5311 8.68681 20.866 9.09721 20.866C9.50761 20.866 9.84961 20.5311 9.84961 20.1292C9.84961 19.7273 9.54181 19.4258 9.16561 19.3924C8.65261 19.1914 6.12181 18.1531 3.45421 15.2727C1.881 13.5646 1.197 11.823 0.889201 10.6507C0.684001 10.0479 0.615601 9.54546 0.581401 9.17704C0.684001 9.24403 0.820801 9.27752 0.957601 9.27752C1.368 9.27752 1.71 8.94259 1.71 8.54068C1.71 8.13877 1.368 7.80384 0.957601 7.80384C0.547201 7.80384 0.2394 8.10527 0.2052 8.50719C0.2052 8.54068 0.171 9.44498 0.478801 10.7512C0.786601 11.9569 1.5048 13.7656 3.1464 15.5072ZM8.44741 27.6651C3.078 23.4115 2.052 15.4067 2.052 15.4067C1.9152 19.5263 4.24081 25.689 7.69501 28.6699C11.1492 31.6507 15.0822 30.8134 15.0822 30.8134C9.98641 29.9426 8.44741 27.6651 8.44741 27.6651ZM8.55001 32.6555C13.5432 35.6029 18.639 33.1914 18.639 33.1914C16.074 33.3254 13.509 33.4258 8.78941 31.3158C4.10401 29.1723 0 22.1723 0 22.1723C0 22.1723 3.59101 29.6747 8.55001 32.6555Z" fill="#FDEFF4"/>
  </g>
  <defs>
    <clipPath id="clip0_11_6">
      <rect width="146" height="42" fill="white"/>
    </clipPath>
  </defs>
</svg>
