<svg xmlns="http://www.w3.org/2000/svg" width="219" height="203" viewBox="0 0 219 203" fill="none">
  <g clip-path="url(#clip0_117_2)">
    <path d="M202.444 155.301L212.269 156.823C215.594 152.832 217.887 148.097 218.947 143.029C211.763 148.857 200.839 145.76 192.128 148.942C189.418 149.955 186.974 151.559 184.975 153.636C182.977 155.712 181.475 158.208 180.582 160.938L175.781 166.058C180.127 167.763 184.795 168.514 189.462 168.259C194.129 168.005 198.686 166.75 202.817 164.582C205.122 163.344 207.261 161.822 209.182 160.053C205.745 157.908 202.444 155.301 202.444 155.301Z" fill="#F2F2F2"/>
    <path d="M198.957 139.729L208.435 136.748C209.616 131.706 209.537 126.455 208.205 121.451C204.398 129.842 193.226 131.899 186.861 138.597C184.892 140.701 183.426 143.218 182.572 145.96C181.718 148.702 181.497 151.599 181.926 154.437L179.932 161.141C184.59 160.747 189.105 159.356 193.168 157.065C197.231 154.774 200.745 151.638 203.467 147.871C204.972 145.744 206.202 143.436 207.126 141.004C203.084 140.603 198.957 139.729 198.957 139.729Z" fill="#F2F2F2"/>
    <path d="M219.001 169.159C219.001 169.209 218.991 169.259 218.972 169.305C218.952 169.352 218.924 169.394 218.888 169.43C218.852 169.465 218.81 169.493 218.763 169.512C218.716 169.532 218.666 169.541 218.615 169.541H0.385708C0.283412 169.541 0.185305 169.501 0.11297 169.429C0.0406363 169.358 0 169.26 0 169.159C0 169.058 0.0406363 168.96 0.11297 168.889C0.185305 168.817 0.283412 168.777 0.385708 168.777H218.615C218.666 168.777 218.716 168.786 218.763 168.805C218.81 168.825 218.852 168.853 218.888 168.888C218.924 168.924 218.952 168.966 218.972 169.012C218.991 169.059 219.001 169.109 219.001 169.159Z" fill="#CCCCCC"/>
    <path d="M90.4296 152.862C128.916 152.862 160.116 121.941 160.116 83.7977C160.116 45.6546 128.916 14.7335 90.4296 14.7335C51.9429 14.7335 20.7432 45.6546 20.7432 83.7977C20.7432 121.941 51.9429 152.862 90.4296 152.862Z" fill="#E6E6E6"/>
    <path d="M150.393 83.7978C150.4 93.0707 148.214 102.216 144.011 110.501C139.808 118.785 133.705 125.979 126.19 131.504C125.688 131.876 125.176 132.239 124.66 132.593C114.612 139.515 102.667 143.225 90.4297 143.225C78.1921 143.225 66.2474 139.515 56.199 132.593C55.6836 132.239 55.1715 131.876 54.6691 131.504C47.16 125.974 41.0604 118.78 36.8579 110.496C32.6555 102.212 30.4668 93.0694 30.4668 83.7978C30.4668 74.5262 32.6555 65.3831 36.8579 57.0996C41.0604 48.8161 47.16 41.6218 54.6691 36.092C55.1715 35.7194 55.6836 35.3564 56.199 35.0031C66.2474 28.0806 78.1921 24.3704 90.4297 24.3704C102.667 24.3704 114.612 28.0806 124.66 35.0031C125.176 35.3564 125.688 35.7194 126.19 36.092C133.705 41.617 139.808 48.8102 144.011 57.0948C148.214 65.3795 150.4 74.5249 150.393 83.7978Z" fill="white"/>
    <path d="M90.4296 138.085C120.682 138.085 145.206 113.78 145.206 83.7977C145.206 53.8155 120.682 29.5101 90.4296 29.5101C60.1772 29.5101 35.6528 53.8155 35.6528 83.7977C35.6528 113.78 60.1772 138.085 90.4296 138.085Z" fill="#FF5C8D"/>
    <path opacity="0.2" d="M90.5725 29.6618C89.7421 29.6618 88.9168 29.6833 88.0955 29.7196C101.94 30.9253 114.804 37.3015 124.082 47.5566C133.36 57.8116 138.358 71.1785 138.063 84.9491C137.768 98.7198 132.203 111.865 122.494 121.72C112.785 131.576 99.6595 137.405 85.7759 138.028C87.3569 138.164 88.9559 138.237 90.5725 138.237C105.1 138.237 119.033 132.518 129.305 122.337C139.578 112.156 145.349 98.3475 145.349 83.9495C145.349 69.5515 139.578 55.7432 129.305 45.5623C119.033 35.3814 105.1 29.6618 90.5725 29.6618V29.6618Z" fill="black"/>
    <path d="M90.5915 25.6553C90.119 25.6561 89.666 25.8425 89.3319 26.1737C88.9977 26.5048 88.8097 26.9537 88.8088 27.422V35.1315C88.8088 35.6001 88.9966 36.0495 89.331 36.3808C89.6653 36.7122 90.1187 36.8983 90.5915 36.8983C91.0643 36.8983 91.5177 36.7122 91.852 36.3808C92.1863 36.0495 92.3742 35.6001 92.3742 35.1315V27.422C92.3733 26.9537 92.1852 26.5048 91.8511 26.1737C91.517 25.8425 91.064 25.6561 90.5915 25.6553Z" fill="white"/>
    <path d="M126.19 36.092C125.687 35.7194 125.175 35.3564 124.66 35.0031C124.351 34.9831 124.042 35.0434 123.763 35.178C123.485 35.3127 123.246 35.517 123.072 35.7708L118.693 42.1408C118.427 42.528 118.327 43.0041 118.415 43.4643C118.503 43.9246 118.772 44.3313 119.163 44.595C119.554 44.8586 120.034 44.9577 120.498 44.8703C120.963 44.783 121.373 44.5164 121.639 44.1292L126.018 37.7592C126.185 37.5175 126.288 37.2384 126.318 36.9473C126.348 36.6561 126.304 36.3621 126.19 36.092Z" fill="white"/>
    <path d="M146.085 65.1376C145.997 64.9229 145.867 64.7274 145.702 64.5624C145.538 64.3974 145.343 64.2661 145.127 64.176C144.912 64.0859 144.68 64.0388 144.446 64.0373C144.212 64.0359 143.98 64.0801 143.764 64.1675L136.555 67.0682C136.118 67.2448 135.769 67.5864 135.585 68.0179C135.402 68.4494 135.399 68.9354 135.576 69.3692C135.754 69.803 136.099 70.1491 136.534 70.3314C136.969 70.5137 137.459 70.5174 137.897 70.3415L145.106 67.4408C145.543 67.2633 145.892 66.9212 146.075 66.4896C146.259 66.0579 146.262 65.5718 146.085 65.1376Z" fill="white"/>
    <path d="M62.1659 42.1408L57.787 35.7708C57.6125 35.517 57.3743 35.3127 57.0957 35.178C56.8172 35.0434 56.5081 34.9831 56.1988 35.0031C55.6835 35.3564 55.1714 35.7194 54.669 36.092C54.5551 36.3621 54.5111 36.6561 54.5411 36.9473C54.5711 37.2384 54.6741 37.5176 54.8408 37.7592L59.2196 44.1292C59.4857 44.5164 59.8961 44.783 60.3605 44.8704C60.8249 44.9577 61.3052 44.8587 61.6959 44.595C62.0866 44.3313 62.3556 43.9246 62.4438 43.4644C62.5319 43.0041 62.432 42.528 62.1659 42.1408Z" fill="white"/>
    <path d="M44.3037 67.0682L37.0952 64.1675C36.6573 63.9913 36.1666 63.9946 35.7311 64.1769C35.2957 64.3591 34.9511 64.7053 34.7732 65.1393C34.5953 65.5733 34.5986 66.0596 34.7824 66.4912C34.9662 66.9228 35.3155 67.2644 35.7533 67.4408L42.9618 70.3415C43.3997 70.5173 43.8901 70.5137 44.3253 70.3314C44.7605 70.1491 45.1048 69.803 45.2827 69.3692C45.4605 68.9353 45.4573 68.4493 45.2737 68.0179C45.0902 67.5864 44.7413 67.2448 44.3037 67.0682V67.0682Z" fill="white"/>
    <path d="M90.5915 130.697C90.119 130.698 89.666 130.885 89.3319 131.216C88.9977 131.547 88.8097 131.996 88.8088 132.464V140.174C88.8088 140.642 88.9966 141.092 89.331 141.423C89.6653 141.754 90.1187 141.94 90.5915 141.94C91.0643 141.94 91.5177 141.754 91.852 141.423C92.1863 141.092 92.3742 140.642 92.3742 140.174V132.464C92.3733 131.996 92.1852 131.547 91.8511 131.216C91.517 130.885 91.064 130.698 90.5915 130.697Z" fill="white"/>
    <path d="M126.018 129.836L121.639 123.466C121.507 123.275 121.339 123.111 121.143 122.983C120.947 122.856 120.728 122.769 120.498 122.725C120.268 122.682 120.032 122.684 119.803 122.731C119.574 122.779 119.356 122.87 119.163 123.001C118.969 123.131 118.804 123.298 118.676 123.492C118.547 123.686 118.459 123.903 118.415 124.131C118.371 124.359 118.373 124.593 118.421 124.82C118.469 125.048 118.561 125.263 118.693 125.455L123.072 131.825C123.246 132.079 123.485 132.283 123.763 132.418C124.042 132.552 124.351 132.613 124.66 132.593C125.175 132.239 125.687 131.876 126.19 131.504C126.304 131.234 126.348 130.94 126.318 130.648C126.288 130.357 126.185 130.078 126.018 129.836Z" fill="white"/>
    <path d="M145.106 100.155L137.897 97.2541C137.459 97.0779 136.969 97.0812 136.533 97.2635C136.098 97.4457 135.753 97.7919 135.575 98.226C135.397 98.66 135.401 99.1463 135.584 99.5779C135.768 100.009 136.117 100.351 136.555 100.527L143.764 103.428C144.202 103.604 144.692 103.6 145.127 103.418C145.563 103.236 145.907 102.89 146.085 102.456C146.263 102.022 146.259 101.536 146.076 101.104C145.892 100.673 145.543 100.331 145.106 100.155V100.155Z" fill="white"/>
    <path d="M61.6959 123.001C61.3052 122.737 60.8249 122.638 60.3605 122.725C59.8961 122.813 59.4858 123.079 59.2197 123.466L54.8408 129.836C54.6741 130.078 54.5711 130.357 54.5411 130.648C54.5111 130.94 54.5551 131.234 54.669 131.504C55.1714 131.876 55.6835 132.239 56.1988 132.593C56.5081 132.613 56.8172 132.552 57.0957 132.418C57.3743 132.283 57.6125 132.079 57.787 131.825L62.1659 125.455C62.2977 125.263 62.39 125.048 62.4377 124.82C62.4854 124.593 62.4875 124.359 62.4439 124.131C62.4002 123.903 62.3117 123.686 62.1834 123.492C62.055 123.298 61.8894 123.131 61.6959 123.001Z" fill="white"/>
    <path d="M45.2826 98.2242C45.1945 98.0095 45.0646 97.814 44.9003 97.649C44.736 97.484 44.5405 97.3527 44.325 97.2626C44.1095 97.1725 43.8782 97.1254 43.6443 97.1239C43.4104 97.1225 43.1785 97.1667 42.9618 97.2541L35.7534 100.155C35.3158 100.331 34.9669 100.673 34.7833 101.105C34.5998 101.536 34.5966 102.022 34.7744 102.456C34.9522 102.89 35.2966 103.236 35.7318 103.418C36.1669 103.6 36.6573 103.604 37.0952 103.428L44.3037 100.527C44.7411 100.35 45.0896 100.008 45.2731 99.5762C45.4565 99.1445 45.4599 98.6584 45.2826 98.2242Z" fill="white"/>
    <path d="M92.9045 82.9212C93.0691 83.8869 92.8404 84.8779 92.2687 85.6767C91.697 86.4756 90.8289 87.0171 89.8549 87.1825L58.2211 92.5153C57.7386 92.5966 57.2446 92.583 56.7673 92.4751C56.2901 92.3673 55.8389 92.1673 55.4397 91.8866C55.0404 91.606 54.7008 91.2501 54.4403 90.8394C54.1798 90.4287 54.0035 89.9712 53.9214 89.4929C53.8393 89.0147 53.8531 88.5251 53.962 88.0521C54.0708 87.5791 54.2725 87.132 54.5557 86.7363C54.8389 86.3406 55.198 86.0041 55.6124 85.7459C56.0268 85.4877 56.4885 85.313 56.971 85.2316L88.6048 79.8988C89.5792 79.7357 90.5792 79.9622 91.3852 80.5288C92.1913 81.0955 92.7377 81.9558 92.9045 82.9212Z" fill="#3F3D56"/>
    <path d="M126.198 117.656C125.744 118.109 125.127 118.365 124.482 118.367C123.838 118.37 123.219 118.119 122.761 117.669L88.7072 84.1848C88.2502 83.7346 87.9922 83.123 87.99 82.4844C87.9878 81.8459 88.2414 81.2325 88.6952 80.7792C89.1491 80.3259 89.7659 80.0697 90.4102 80.0669C91.0546 80.064 91.6736 80.3149 92.1315 80.7642L126.185 114.249C126.642 114.699 126.9 115.311 126.902 115.95C126.905 116.588 126.652 117.202 126.198 117.656Z" fill="#3F3D56"/>
    <path d="M90.4294 87.9738C92.7565 87.9738 94.643 86.1041 94.643 83.7978C94.643 81.4915 92.7565 79.6218 90.4294 79.6218C88.1023 79.6218 86.2158 81.4915 86.2158 83.7978C86.2158 86.1041 88.1023 87.9738 90.4294 87.9738Z" fill="#CCCCCC"/>
    <path d="M61.4067 11.3859C54.9388 21.4637 45.0703 28.1518 32.8999 32.5455C32.6594 32.724 32.3858 32.8538 32.0947 32.9275C31.8036 33.0012 31.5007 33.0174 31.2033 32.9751C30.9059 32.9328 30.6198 32.8328 30.3613 32.6809C30.1029 32.529 29.8772 32.3282 29.697 32.0898C23.0862 23.3419 24.5789 10.8395 33.3038 4.15505C35.4132 2.5418 37.8249 1.35988 40.399 0.677916C42.973 -0.00404875 45.6581 -0.172478 48.2984 0.18241C50.9386 0.537298 53.4815 1.40843 55.7792 2.74524C58.077 4.08204 60.084 5.85789 61.6836 7.96969L61.8664 8.21165C62.0465 8.44999 62.1775 8.72115 62.2519 9.00966C62.3263 9.29817 62.3426 9.59838 62.2999 9.89313C62.2572 10.1879 62.1563 10.4714 62.0031 10.7276C61.8498 10.9837 61.6472 11.2074 61.4067 11.3859Z" fill="#E6E6E6"/>
    <path d="M119.176 7.96968C120.775 5.85789 122.782 4.08204 125.08 2.74523C127.378 1.40843 129.921 0.537299 132.561 0.182411C135.201 -0.172477 137.886 -0.00405228 140.46 0.677912C143.034 1.35988 145.446 2.54179 147.555 4.15505C156.28 10.8394 157.773 23.3419 151.162 32.0898C150.982 32.3282 150.756 32.529 150.498 32.6809C150.239 32.8328 149.953 32.9327 149.656 32.9751C149.359 33.0174 149.056 33.0012 148.765 32.9275C148.473 32.8538 148.2 32.724 147.959 32.5455C136.661 28.2585 127.396 20.84 119.453 11.3859C118.967 11.0254 118.646 10.4884 118.56 9.89312C118.473 9.29783 118.629 8.69298 118.993 8.21163L119.176 7.96968Z" fill="#E6E6E6"/>
    <path d="M116.341 143.633C115.929 143.862 115.626 144.244 115.497 144.695C115.369 145.145 115.426 145.628 115.656 146.037L125.944 164.258C126.175 164.667 126.56 164.968 127.015 165.095C127.47 165.223 127.958 165.166 128.37 164.937C128.783 164.708 129.087 164.326 129.215 163.875C129.344 163.425 129.286 162.942 129.055 162.533L118.767 144.312C118.536 143.903 118.15 143.603 117.696 143.475C117.241 143.348 116.754 143.405 116.341 143.633Z" fill="#E6E6E6"/>
    <path d="M62.092 144.312L51.8037 162.533C51.573 162.942 51.5155 163.425 51.6441 163.875C51.7726 164.326 52.0765 164.708 52.489 164.937C52.9016 165.166 53.3889 165.223 53.8438 165.095C54.2988 164.968 54.6841 164.667 54.915 164.258L65.2033 146.037C65.3177 145.835 65.3907 145.612 65.4182 145.381C65.4457 145.151 65.4271 144.917 65.3635 144.694C65.2999 144.471 65.1925 144.262 65.0475 144.08C64.9025 143.898 64.7227 143.746 64.5184 143.632C64.3141 143.519 64.0892 143.447 63.8567 143.42C63.6242 143.392 63.3885 143.411 63.1632 143.474C62.9379 143.537 62.7273 143.643 62.5435 143.787C62.3597 143.931 62.2063 144.109 62.092 144.312H62.092Z" fill="#E6E6E6"/>
    <path d="M128.028 168.924C131.071 168.924 133.538 166.479 133.538 163.463C133.538 160.447 131.071 158.002 128.028 158.002C124.985 158.002 122.518 160.447 122.518 163.463C122.518 166.479 124.985 168.924 128.028 168.924Z" fill="#E6E6E6"/>
    <path d="M131.917 29.1888C134.96 29.1888 137.427 26.7439 137.427 23.7279C137.427 20.712 134.96 18.267 131.917 18.267C128.874 18.267 126.407 20.712 126.407 23.7279C126.407 26.7439 128.874 29.1888 131.917 29.1888Z" fill="#E6E6E6"/>
    <path d="M90.1053 16.3397C93.1484 16.3397 95.6154 13.8947 95.6154 10.8788C95.6154 7.86278 93.1484 5.41785 90.1053 5.41785C87.0622 5.41785 84.5952 7.86278 84.5952 10.8788C84.5952 13.8947 87.0622 16.3397 90.1053 16.3397Z" fill="#E6E6E6"/>
    <path d="M50.2384 28.5464C53.2815 28.5464 55.7485 26.1014 55.7485 23.0855C55.7485 20.0695 53.2815 17.6246 50.2384 17.6246C47.1952 17.6246 44.7283 20.0695 44.7283 23.0855C44.7283 26.1014 47.1952 28.5464 50.2384 28.5464Z" fill="#E6E6E6"/>
    <path d="M53.8035 168.924C56.8467 168.924 59.3136 166.479 59.3136 163.463C59.3136 160.447 56.8467 158.002 53.8035 158.002C50.7604 158.002 48.2935 160.447 48.2935 163.463C48.2935 166.479 50.7604 168.924 53.8035 168.924Z" fill="#E6E6E6"/>
    <path d="M123.706 114.585C123.923 114.922 124.212 115.208 124.553 115.422C124.893 115.636 125.277 115.774 125.677 115.825C126.078 115.877 126.484 115.84 126.869 115.719C127.253 115.598 127.606 115.395 127.903 115.123L136.549 119.715L136.085 114.684L127.946 111.095C127.453 110.631 126.806 110.363 126.127 110.34C125.448 110.318 124.785 110.543 124.262 110.973C123.739 111.403 123.394 112.009 123.291 112.674C123.189 113.34 123.336 114.02 123.706 114.585H123.706Z" fill="#FFB7B7"/>
    <path d="M130.005 116.341L133.394 111.705L149.716 119.353L170.028 115.576C171.032 115.389 172.065 115.424 173.054 115.677C174.043 115.931 174.964 116.397 175.751 117.043C176.537 117.688 177.171 118.498 177.606 119.414C178.042 120.329 178.269 121.329 178.271 122.341C178.272 124.17 177.542 125.925 176.239 127.22C174.937 128.515 173.169 129.246 171.324 129.251L148.047 129.294L130.005 116.341Z" fill="#3F3D56"/>
    <path d="M124.787 196.399L121.359 194.775L126.068 180.574L131.127 182.972L124.787 196.399Z" fill="#FFB7B7"/>
    <path d="M147.769 194.11C147.52 194.265 147.271 194.417 147.019 194.569C146.518 194.874 146.011 195.173 145.505 195.468C145.251 195.615 144.994 195.762 144.74 195.907V195.914L144.725 195.917L144.72 195.919L144.332 196.014L143.775 194.557L143.519 193.885L143.156 192.935L142.491 191.195L138.991 182.037L144.433 180.706L144.637 181.533H144.639L144.74 181.942L146.641 189.583L147.029 191.145L147.041 191.193L147.276 192.126L147.477 192.935L147.701 193.838L147.769 194.11Z" fill="#FFB7B7"/>
    <path d="M180.23 161.947C179.885 162.496 179.532 163.042 179.177 163.584C178.517 164.592 177.84 165.585 177.145 166.564C177.145 166.566 177.142 166.566 177.14 166.569C176.734 166.941 176.287 167.265 175.805 167.534C175.785 167.549 175.763 167.559 175.742 167.572C175.388 167.766 175.011 167.916 174.619 168.019C174.478 168.054 174.335 168.088 174.194 168.123C173.685 168.243 173.182 168.345 172.681 168.435C171.789 168.593 170.908 168.705 170.032 168.775C169.961 168.782 169.891 168.787 169.82 168.792C166.217 169.054 162.709 168.632 159.048 167.941C157.24 167.602 155.394 167.195 153.483 166.773C152.859 166.634 152.232 166.496 151.597 166.359C151.549 166.349 151.499 166.337 151.449 166.327C150.542 166.129 149.62 165.935 148.676 165.743C147.488 165.501 146.261 165.266 144.987 165.044L145.078 166.823C145.153 168.192 145.44 169.541 145.929 170.824C146.473 172.401 146.903 173.649 145.994 176.246L145.556 177.504C145.783 178.129 145.861 178.797 145.784 179.456C145.707 180.116 145.476 180.749 145.111 181.305L145.023 181.437L148.676 190.598L148.913 191.192H147.042L144.741 191.195H140.84L135.212 180.005L134.943 179.471V179.443L135.525 157.939C135.532 157.749 135.547 157.557 135.572 157.368C135.675 156.505 135.95 155.672 136.381 154.916C136.812 154.16 137.39 153.497 138.083 152.965C138.746 152.452 139.506 152.073 140.319 151.853C141.131 151.633 141.979 151.575 142.814 151.683L144.741 151.93L148.676 152.434L151.449 152.791L151.504 152.798L159.68 153.846L160.267 151.476L160.375 151.436L163.817 150.185L175.722 145.861L175.752 145.851L176.536 145.566L176.629 145.716C176.656 145.761 176.684 145.806 176.709 145.851C177.483 147.226 178.114 148.676 178.59 150.178C179.392 152.632 180.052 155.129 180.567 157.657C180.59 157.767 180.61 157.867 180.627 157.957L180.635 157.984C180.643 158.026 180.648 158.054 180.65 158.061C180.925 159.194 180.733 160.577 180.23 161.947Z" fill="#2F2E41"/>
    <path d="M180.732 154.022C180.694 153.862 180.646 153.7 180.596 153.543C180.196 152.352 179.73 151.184 179.201 150.044C178.607 148.746 177.894 147.356 177.046 145.852C176.635 145.123 176.194 144.365 175.721 143.578C175.484 143.184 175.238 142.782 174.983 142.373C174.973 142.354 174.962 142.336 174.951 142.318L174.878 142.198L163.098 143.76L158.712 144.342L158.45 146.508L158.387 147.044C158.384 147.044 158.384 147.044 158.387 147.047L158.211 148.509V148.512L157.977 150.443L157.956 150.441L151.447 149.605L144.739 148.744L141.136 148.282C140.301 148.174 139.453 148.232 138.64 148.453C137.828 148.673 137.068 149.051 136.405 149.565C135.712 150.097 135.134 150.76 134.703 151.516C134.272 152.272 133.997 153.105 133.894 153.967C133.872 154.142 133.856 154.322 133.849 154.499L130.45 162.482C128.415 167.256 127.12 172.308 126.607 177.465L124.114 185.364L124.469 185.396L129.752 185.883L131.147 186.013L134.219 181.568C134.569 181.061 134.901 180.54 135.211 180.006C135.721 179.133 136.174 178.23 136.568 177.301L143.213 161.629C143.727 161.716 144.236 161.799 144.739 161.878C147.069 162.252 149.305 162.558 151.447 162.794C158.415 163.565 164.448 163.625 169.819 162.971C171.327 162.789 172.785 162.549 174.193 162.252C174.709 162.145 175.218 162.029 175.721 161.906C175.839 161.878 175.955 161.851 176.071 161.821C177.112 161.555 178.068 161.034 178.854 160.307C179.639 159.58 180.228 158.669 180.566 157.658C180.969 156.486 181.027 155.225 180.732 154.022Z" fill="#2F2E41"/>
    <path d="M125.882 194.081L122.173 192.319L121.591 192.042L120.662 194.303L114.176 195.718C113.855 195.787 113.565 195.957 113.348 196.201C113.132 196.446 113 196.753 112.972 197.077C112.944 197.401 113.021 197.726 113.192 198.003C113.363 198.281 113.62 198.497 113.924 198.62L120.262 201.183L122.274 199.389L121.78 201.797L124.167 202.763L126.783 194.51L125.882 194.081Z" fill="#2F2E41"/>
    <path d="M148.676 190.598L148.913 191.192H148.676V190.598Z" fill="#2F2E41"/>
    <path d="M147.384 191.319L143.498 192.654L142.888 192.862L143.833 195.117L140.229 200.646C140.05 200.919 139.965 201.241 139.984 201.566C140.004 201.891 140.128 202.201 140.338 202.451C140.548 202.701 140.834 202.878 141.152 202.956C141.471 203.034 141.807 203.008 142.11 202.884L148.433 200.285L148.589 197.607L149.948 199.663L152.33 198.684L148.33 190.996L147.384 191.319Z" fill="#2F2E41"/>
    <path d="M179.763 157.638C179.532 157.637 179.305 157.581 179.101 157.475L158.592 146.854L158.355 145.893L157.908 142.85L157.915 142.822L159.865 133.91C159.829 133.833 159.755 133.708 159.67 133.566C158.799 132.104 156.149 127.653 161.207 121.526L170.086 111.266L177.707 110.941L177.794 111.05C179.832 113.585 181.206 116.579 181.795 119.767C182.384 122.955 182.168 126.238 181.168 129.324L180.375 143.528L181.226 146.396C181.724 148.082 181.641 149.884 180.992 151.518L181.187 156.163C181.195 156.353 181.164 156.543 181.096 156.721C181.027 156.899 180.924 157.062 180.791 157.2C180.658 157.337 180.498 157.447 180.322 157.522C180.145 157.598 179.955 157.637 179.763 157.638L179.763 157.638Z" fill="#3F3D56"/>
    <path d="M161.973 169.352C162.32 169.148 162.619 168.872 162.847 168.542C163.075 168.212 163.227 167.836 163.293 167.442C163.358 167.047 163.336 166.643 163.227 166.258C163.118 165.873 162.925 165.516 162.662 165.213L167.593 156.809L162.504 157.093L158.602 165.03C158.117 165.502 157.823 166.133 157.777 166.805C157.731 167.477 157.935 168.142 158.35 168.675C158.766 169.208 159.364 169.571 160.032 169.695C160.7 169.82 161.39 169.698 161.973 169.352L161.973 169.352Z" fill="#FFB7B7"/>
    <path d="M163.963 163.173L159.406 159.656L167.686 143.754L164.583 123.505C164.43 122.504 164.501 121.482 164.791 120.511C165.081 119.54 165.583 118.645 166.262 117.888C166.94 117.131 167.779 116.532 168.717 116.132C169.656 115.733 170.672 115.543 171.693 115.576C173.537 115.638 175.281 116.423 176.542 117.758C177.803 119.093 178.478 120.869 178.419 122.697L177.652 145.754L163.963 163.173Z" fill="#3F3D56"/>
    <path d="M165.198 107.003V99.529C165.196 96.8728 166.259 94.3248 168.153 92.4454C170.047 90.5661 172.617 89.5093 175.297 89.5076C177.977 89.5059 180.548 90.5594 182.444 92.4363C184.34 94.3133 185.407 96.86 185.408 99.5161V99.529C187.189 103.207 186.075 104.956 185.408 107.003C185.408 107.359 185.265 107.701 185.01 107.953C184.756 108.205 184.411 108.347 184.052 108.348H166.555C166.196 108.347 165.851 108.205 165.596 107.953C165.342 107.701 165.199 107.359 165.198 107.003Z" fill="#2F2E41"/>
    <path d="M171.99 107.862C176.167 107.862 179.554 104.506 179.554 100.365C179.554 96.2251 176.167 92.8688 171.99 92.8688C167.812 92.8688 164.426 96.2251 164.426 100.365C164.426 104.506 167.812 107.862 171.99 107.862Z" fill="#FFB7B7"/>
    <path d="M179.906 102.331C179.838 102.32 179.769 102.306 179.7 102.295C178.521 102.087 177.341 101.884 176.164 101.673L176.056 99.03L174.631 101.397C171.38 102.466 168.338 101.862 165.477 100.528C164.533 100.084 163.617 99.5839 162.735 99.03C162.975 97.5684 163.542 96.1786 164.394 94.9622C165.246 93.7458 166.362 92.7335 167.66 91.9995C167.768 91.9387 167.873 91.8851 167.981 91.8314C167.981 91.8315 167.982 91.8314 167.982 91.8312C167.983 91.831 167.983 91.8307 167.984 91.8304C167.984 91.8301 167.984 91.8297 167.984 91.8292C167.984 91.8288 167.985 91.8283 167.985 91.8279C168.169 91.742 168.356 91.6598 168.544 91.5847C170.013 91.0158 171.614 90.8717 173.163 91.1692C174.711 91.4667 176.142 92.1936 177.29 93.2654C179.599 95.4504 180.639 99.0586 179.906 102.331Z" fill="#2F2E41"/>
  </g>
  <defs>
    <clipPath id="clip0_117_2">
      <rect width="219" height="203" fill="white"/>
    </clipPath>
  </defs>
</svg>
