<svg xmlns="http://www.w3.org/2000/svg" width="234" height="203" viewBox="0 0 234 203" fill="none">
  <g clip-path="url(#clip0_117_118)">
    <path d="M194.892 48.0913H193.78V17.6305C193.78 12.9546 191.923 8.47024 188.617 5.16387C185.31 1.8575 180.826 3.08673e-06 176.15 0H111.612C109.297 0 107.005 0.456027 104.866 1.34204C102.727 2.22806 100.783 3.52672 99.1458 5.16387C97.5087 6.80101 96.21 8.74459 95.324 10.8836C94.438 13.0227 93.9819 15.3153 93.9819 17.6305V184.743C93.9819 189.419 95.8394 193.904 99.1458 197.21C102.452 200.516 106.937 202.374 111.612 202.374H176.15C180.826 202.374 185.31 200.516 188.616 197.21C191.923 193.904 193.78 189.419 193.78 184.743V69.7738H194.892L194.892 48.0913Z" fill="#E6E6E6"/>
    <path d="M176.861 4.58508H168.438C168.825 5.53493 168.973 6.56549 168.868 7.58596C168.764 8.60642 168.409 9.58548 167.837 10.4369C167.265 11.2882 166.492 11.9858 165.587 12.4681C164.681 12.9505 163.671 13.2027 162.645 13.2027H125.673C124.647 13.2026 123.637 12.9503 122.732 12.468C121.826 11.9856 121.054 11.288 120.481 10.4366C119.909 9.58527 119.555 8.60625 119.451 7.58582C119.346 6.5654 119.494 5.53489 119.881 4.58508H112.013C108.521 4.58508 105.172 5.97225 102.703 8.44141C100.234 10.9106 98.8467 14.2595 98.8467 17.7514V184.622C98.8467 188.114 100.234 191.462 102.703 193.932C105.172 196.401 108.521 197.788 112.013 197.788H176.861C180.353 197.788 183.702 196.401 186.171 193.932C188.64 191.462 190.028 188.114 190.028 184.622V17.7511C190.027 14.2593 188.64 10.9104 186.171 8.44131C183.702 5.97221 180.353 4.58508 176.861 4.58508Z" fill="white"/>
    <path d="M124.822 43.5079C124.47 43.511 124.122 43.4401 123.8 43.2998C123.478 43.1595 123.189 42.953 122.951 42.6937C122.67 42.3682 122.459 41.9879 122.332 41.5769C122.204 41.1659 122.163 40.733 122.211 40.3054C122.278 39.491 122.62 38.7234 123.18 38.1281C123.449 37.8374 123.774 37.6047 124.136 37.4443C124.498 37.2839 124.889 37.1991 125.285 37.1952C125.653 37.1936 126.018 37.2695 126.355 37.418C126.692 37.5665 126.994 37.7843 127.241 38.0571C127.521 38.374 127.733 38.7457 127.863 39.1485C127.992 39.5514 128.037 39.9767 127.994 40.3977C127.942 41.2618 127.569 42.0752 126.949 42.6791C126.371 43.2166 125.61 43.513 124.822 43.5079ZM125.285 38.2473C124.255 38.2473 123.366 39.1919 123.259 40.3977C123.224 40.6799 123.248 40.9663 123.328 41.2391C123.409 41.5119 123.545 41.7652 123.727 41.9831C123.866 42.1352 124.035 42.2561 124.223 42.3376C124.412 42.4191 124.616 42.4594 124.822 42.4557C125.785 42.4557 126.815 41.7908 126.946 40.3053C126.976 40.0297 126.949 39.7508 126.866 39.4861C126.783 39.2215 126.647 38.9769 126.465 38.7677C126.316 38.603 126.134 38.4716 125.93 38.3819C125.727 38.2923 125.507 38.2464 125.285 38.2473Z" fill="#3F3D56"/>
    <path d="M124.856 46.6641C124.042 46.6773 123.234 46.5174 122.487 46.1948C121.74 45.8723 121.07 45.3945 120.521 44.7932C119.973 44.1918 119.558 43.4808 119.305 42.7071C119.053 41.9334 118.967 41.1148 119.055 40.3056C119.227 38.6071 120.017 37.0309 121.274 35.8758C122.531 34.7207 124.169 34.0671 125.876 34.0388C127.769 34.0388 129.328 34.6473 130.382 35.7986C131.382 36.8902 131.85 38.427 131.7 40.1257C131.558 41.735 130.876 42.5731 130.328 42.9928C130.086 43.19 129.807 43.336 129.507 43.422C129.207 43.508 128.892 43.5322 128.583 43.4931C127.717 43.3396 126.759 42.553 126.91 40.8413L127.188 37.6767C127.201 37.5382 127.268 37.4105 127.375 37.3214C127.482 37.2324 127.62 37.1892 127.758 37.2014C127.897 37.2136 128.025 37.2802 128.115 37.3866C128.204 37.4929 128.248 37.6304 128.236 37.769L127.958 40.9335C127.883 41.7845 128.185 42.3541 128.766 42.4572C129.101 42.4832 129.432 42.3755 129.688 42.1577C130.068 41.8664 130.544 41.2615 130.652 40.0334C130.777 38.6118 130.416 37.3932 129.606 36.5091C128.757 35.5813 127.466 35.0909 125.875 35.0909C124.431 35.1183 123.047 35.673 121.984 36.6505C120.921 37.628 120.252 38.9607 120.103 40.3974C120.028 41.0612 120.096 41.7334 120.302 42.3689C120.508 43.0044 120.847 43.5886 121.297 44.0824C121.747 44.5761 122.297 44.968 122.911 45.2318C123.525 45.4956 124.188 45.6252 124.856 45.612C125.68 45.6565 126.503 45.5073 127.258 45.1763C127.387 45.123 127.531 45.1227 127.66 45.1755C127.789 45.2284 127.891 45.3301 127.945 45.4584C127.999 45.5867 128 45.7311 127.948 45.86C127.895 45.9889 127.794 46.0919 127.666 46.1463C126.781 46.5315 125.82 46.7086 124.856 46.6641Z" fill="#3F3D56"/>
    <path d="M119.301 121.857C119.197 121.857 119.096 121.826 119.009 121.768C118.923 121.71 118.855 121.628 118.815 121.532C118.776 121.436 118.765 121.33 118.785 121.228C118.806 121.126 118.856 121.032 118.929 120.959L122.349 117.54C122.448 117.442 122.581 117.388 122.72 117.388C122.859 117.389 122.992 117.444 123.09 117.542C123.188 117.64 123.244 117.773 123.244 117.912C123.245 118.051 123.19 118.185 123.093 118.284L119.673 121.703C119.625 121.752 119.567 121.791 119.503 121.817C119.439 121.843 119.371 121.857 119.301 121.857ZM127.981 120.542C127.877 120.542 127.776 120.511 127.689 120.453C127.603 120.395 127.535 120.313 127.495 120.217C127.456 120.121 127.445 120.015 127.465 119.913C127.486 119.811 127.536 119.717 127.609 119.644L130.503 116.751C130.602 116.653 130.735 116.599 130.874 116.599C131.013 116.6 131.146 116.655 131.244 116.753C131.342 116.851 131.397 116.984 131.398 117.123C131.398 117.262 131.344 117.396 131.247 117.494L128.353 120.388C128.304 120.437 128.247 120.475 128.183 120.502C128.119 120.528 128.05 120.542 127.981 120.542ZM126.403 120.542C126.334 120.542 126.266 120.528 126.202 120.502C126.138 120.475 126.08 120.437 126.031 120.388L123.927 118.284C123.878 118.235 123.838 118.177 123.811 118.113C123.784 118.049 123.77 117.98 123.77 117.911C123.77 117.841 123.783 117.773 123.81 117.708C123.836 117.644 123.875 117.586 123.924 117.537C123.973 117.488 124.032 117.449 124.096 117.423C124.16 117.396 124.229 117.383 124.298 117.383C124.368 117.383 124.436 117.397 124.5 117.424C124.564 117.451 124.622 117.49 124.671 117.54L126.775 119.644C126.849 119.717 126.899 119.811 126.919 119.913C126.939 120.015 126.929 120.121 126.889 120.217C126.849 120.313 126.782 120.395 126.695 120.453C126.609 120.511 126.507 120.542 126.403 120.542Z" fill="#3F3D56"/>
    <path d="M131.664 117.649C131.404 117.649 131.149 117.571 130.933 117.427C130.717 117.282 130.548 117.077 130.449 116.837C130.349 116.596 130.323 116.332 130.374 116.077C130.425 115.822 130.55 115.587 130.734 115.404C130.918 115.22 131.152 115.094 131.407 115.044C131.662 114.993 131.927 115.019 132.167 115.118C132.407 115.218 132.613 115.387 132.757 115.603C132.902 115.819 132.979 116.073 132.979 116.333C132.979 116.682 132.84 117.016 132.593 117.263C132.347 117.51 132.012 117.648 131.664 117.649ZM131.664 116.07C131.612 116.07 131.561 116.086 131.518 116.115C131.474 116.144 131.441 116.185 131.421 116.233C131.401 116.281 131.396 116.334 131.406 116.385C131.416 116.436 131.441 116.483 131.478 116.519C131.515 116.556 131.561 116.581 131.612 116.591C131.663 116.602 131.716 116.596 131.764 116.576C131.812 116.557 131.854 116.523 131.882 116.48C131.911 116.436 131.927 116.385 131.927 116.333C131.927 116.264 131.899 116.197 131.85 116.148C131.8 116.098 131.733 116.07 131.664 116.07Z" fill="#3F3D56"/>
    <path d="M127.192 122.12C126.932 122.12 126.678 122.043 126.461 121.898C126.245 121.754 126.077 121.548 125.977 121.308C125.878 121.068 125.851 120.803 125.902 120.548C125.953 120.293 126.078 120.059 126.262 119.875C126.446 119.691 126.68 119.566 126.936 119.515C127.191 119.464 127.455 119.49 127.695 119.59C127.936 119.689 128.141 119.858 128.286 120.074C128.43 120.291 128.507 120.545 128.507 120.805C128.507 121.154 128.368 121.488 128.122 121.734C127.875 121.981 127.541 122.12 127.192 122.12ZM127.192 120.542C127.14 120.542 127.089 120.557 127.046 120.586C127.003 120.615 126.969 120.656 126.949 120.704C126.929 120.752 126.924 120.805 126.934 120.856C126.944 120.907 126.969 120.954 127.006 120.991C127.043 121.028 127.09 121.053 127.141 121.063C127.192 121.073 127.245 121.068 127.293 121.048C127.341 121.028 127.382 120.994 127.411 120.951C127.44 120.908 127.455 120.857 127.455 120.805C127.455 120.735 127.427 120.668 127.378 120.619C127.329 120.57 127.262 120.542 127.192 120.542Z" fill="#3F3D56"/>
    <path d="M123.51 118.438C123.25 118.438 122.996 118.361 122.779 118.216C122.563 118.071 122.394 117.866 122.295 117.626C122.195 117.385 122.169 117.121 122.22 116.866C122.271 116.611 122.396 116.376 122.58 116.193C122.764 116.009 122.998 115.883 123.253 115.833C123.508 115.782 123.773 115.808 124.013 115.907C124.254 116.007 124.459 116.176 124.603 116.392C124.748 116.608 124.825 116.862 124.825 117.123C124.825 117.471 124.686 117.805 124.439 118.052C124.193 118.299 123.859 118.437 123.51 118.438ZM123.51 116.859C123.458 116.859 123.407 116.875 123.364 116.904C123.321 116.933 123.287 116.974 123.267 117.022C123.247 117.07 123.242 117.123 123.252 117.174C123.262 117.225 123.287 117.272 123.324 117.308C123.361 117.345 123.408 117.37 123.459 117.38C123.51 117.391 123.563 117.385 123.611 117.366C123.659 117.346 123.7 117.312 123.729 117.269C123.758 117.225 123.773 117.175 123.773 117.123C123.773 117.053 123.745 116.986 123.696 116.937C123.647 116.887 123.58 116.86 123.51 116.859Z" fill="#3F3D56"/>
    <path d="M118.512 123.435C118.252 123.435 117.998 123.358 117.782 123.213C117.565 123.069 117.397 122.864 117.297 122.623C117.198 122.383 117.172 122.119 117.223 121.863C117.273 121.608 117.399 121.374 117.582 121.19C117.766 121.006 118.001 120.881 118.256 120.83C118.511 120.779 118.775 120.805 119.016 120.905C119.256 121.004 119.461 121.173 119.606 121.389C119.75 121.606 119.828 121.86 119.828 122.12C119.827 122.469 119.688 122.803 119.442 123.049C119.195 123.296 118.861 123.435 118.512 123.435ZM118.512 121.857C118.46 121.857 118.41 121.872 118.366 121.901C118.323 121.93 118.289 121.971 118.269 122.019C118.249 122.067 118.244 122.12 118.254 122.171C118.265 122.222 118.29 122.269 118.326 122.306C118.363 122.343 118.41 122.368 118.461 122.378C118.512 122.388 118.565 122.383 118.613 122.363C118.661 122.343 118.702 122.309 118.731 122.266C118.76 122.223 118.775 122.172 118.775 122.12C118.775 122.05 118.748 121.983 118.698 121.934C118.649 121.885 118.582 121.857 118.512 121.857Z" fill="#3F3D56"/>
    <path d="M168.437 164.002H157.39C156.901 164.002 156.433 163.808 156.088 163.463C155.743 163.117 155.549 162.649 155.548 162.161V154.27C155.549 153.782 155.743 153.314 156.088 152.969C156.433 152.624 156.901 152.43 157.39 152.429H168.437C168.925 152.43 169.393 152.624 169.738 152.969C170.083 153.314 170.277 153.782 170.278 154.27V162.161C170.277 162.649 170.083 163.117 169.738 163.463C169.393 163.808 168.925 164.002 168.437 164.002ZM157.39 153.481C157.18 153.482 156.98 153.565 156.832 153.713C156.684 153.861 156.601 154.061 156.6 154.27V162.161C156.601 162.37 156.684 162.571 156.832 162.719C156.98 162.867 157.18 162.95 157.39 162.95H168.437C168.646 162.95 168.846 162.867 168.994 162.719C169.142 162.571 169.226 162.37 169.226 162.161V154.27C169.226 154.061 169.142 153.861 168.994 153.713C168.846 153.565 168.646 153.482 168.437 153.481L157.39 153.481Z" fill="#3F3D56"/>
    <path d="M162.913 159.268C162.796 159.268 162.682 159.229 162.59 159.157L157.856 155.475C157.801 155.432 157.755 155.38 157.721 155.32C157.687 155.259 157.665 155.193 157.657 155.125C157.648 155.056 157.653 154.987 157.671 154.92C157.69 154.853 157.721 154.791 157.763 154.737C157.806 154.682 157.859 154.636 157.919 154.602C157.979 154.568 158.045 154.546 158.113 154.538C158.182 154.529 158.252 154.534 158.318 154.552C158.385 154.571 158.447 154.602 158.502 154.644L162.913 158.075L167.325 154.644C167.379 154.602 167.442 154.571 167.508 154.552C167.575 154.534 167.644 154.529 167.713 154.538C167.781 154.546 167.848 154.568 167.908 154.602C167.968 154.636 168.02 154.682 168.063 154.737C168.105 154.791 168.137 154.853 168.155 154.92C168.173 154.987 168.178 155.056 168.17 155.125C168.161 155.193 168.139 155.259 168.105 155.32C168.071 155.38 168.025 155.432 167.971 155.475L163.236 159.157C163.144 159.229 163.03 159.268 162.913 159.268Z" fill="#3F3D56"/>
    <path d="M222.248 171.285L161.395 171.309C161.318 171.309 161.244 171.279 161.19 171.224C161.135 171.169 161.104 171.095 161.104 171.018C161.104 170.941 161.135 170.867 161.19 170.812C161.244 170.758 161.318 170.727 161.395 170.727L222.248 170.703C222.325 170.703 222.399 170.734 222.454 170.788C222.508 170.843 222.539 170.917 222.539 170.994C222.539 171.071 222.508 171.145 222.454 171.2C222.399 171.254 222.325 171.285 222.248 171.285Z" fill="#CCCCCC"/>
    <path d="M221.438 175.068C223.688 175.068 225.511 173.244 225.511 170.994C225.511 168.744 223.688 166.921 221.438 166.921C219.188 166.921 217.365 168.744 217.365 170.994C217.365 173.244 219.188 175.068 221.438 175.068Z" fill="#FF5C8D"/>
    <path d="M220.793 93.3069L159.359 93.331C159.281 93.331 159.207 93.3004 159.153 93.2458C159.098 93.1912 159.068 93.1172 159.068 93.0401C159.068 92.9629 159.098 92.8889 159.153 92.8343C159.207 92.7797 159.281 92.7491 159.359 92.7491L220.793 92.725C220.87 92.725 220.944 92.7556 220.999 92.8102C221.053 92.8648 221.084 92.9388 221.084 93.0159C221.084 93.0931 221.053 93.1671 220.999 93.2217C220.944 93.2762 220.87 93.3069 220.793 93.3069Z" fill="#CCCCCC"/>
    <path d="M221.438 97.3804C223.688 97.3804 225.511 95.5566 225.511 93.3069C225.511 91.0572 223.688 89.2334 221.438 89.2334C219.188 89.2334 217.365 91.0572 217.365 93.3069C217.365 95.5566 219.188 97.3804 221.438 97.3804Z" fill="#FF5C8D"/>
    <path d="M63.508 53.4449L124.942 53.469C125.02 53.469 125.094 53.4383 125.148 53.3837C125.203 53.3292 125.233 53.2552 125.233 53.178C125.233 53.1008 125.203 53.0268 125.148 52.9722C125.094 52.9177 125.02 52.887 124.942 52.887L63.508 52.8629C63.4308 52.8629 63.3568 52.8936 63.3023 52.9481C63.2477 53.0027 63.217 53.0767 63.217 53.1539C63.217 53.2311 63.2477 53.3051 63.3023 53.3596C63.3568 53.4142 63.4308 53.4449 63.508 53.4449Z" fill="#CCCCCC"/>
    <path d="M62.863 57.5183C65.1128 57.5183 66.9365 55.6945 66.9365 53.4448C66.9365 51.1951 65.1128 49.3713 62.863 49.3713C60.6133 49.3713 58.7896 51.1951 58.7896 53.4448C58.7896 55.6945 60.6133 57.5183 62.863 57.5183Z" fill="#FF5C8D"/>
    <path d="M63.508 132.296L124.942 132.32C125.02 132.32 125.094 132.289 125.148 132.235C125.203 132.18 125.233 132.106 125.233 132.029C125.233 131.952 125.203 131.878 125.148 131.823C125.094 131.769 125.02 131.738 124.942 131.738L63.508 131.714C63.4308 131.714 63.3568 131.745 63.3023 131.799C63.2477 131.854 63.217 131.928 63.217 132.005C63.217 132.082 63.2477 132.156 63.3023 132.211C63.3568 132.265 63.4308 132.296 63.508 132.296Z" fill="#CCCCCC"/>
    <path d="M62.863 136.369C65.1128 136.369 66.9365 134.546 66.9365 132.296C66.9365 130.046 65.1128 128.222 62.863 128.222C60.6133 128.222 58.7896 130.046 58.7896 132.296C58.7896 134.546 60.6133 136.369 62.863 136.369Z" fill="#FF5C8D"/>
    <path d="M162.913 171.309C160.324 171.309 157.792 170.541 155.639 169.102C153.486 167.664 151.807 165.619 150.816 163.226C149.825 160.834 149.566 158.201 150.071 155.661C150.577 153.122 151.824 150.789 153.655 148.957C155.486 147.126 157.819 145.879 160.359 145.374C162.899 144.869 165.531 145.128 167.924 146.119C170.316 147.11 172.361 148.788 173.8 150.942C175.239 153.095 176.007 155.626 176.007 158.216C176.003 161.687 174.622 165.015 172.167 167.47C169.713 169.924 166.385 171.305 162.913 171.309ZM162.913 145.704C160.439 145.704 158.02 146.438 155.962 147.813C153.905 149.188 152.301 151.142 151.354 153.428C150.407 155.714 150.159 158.23 150.642 160.657C151.125 163.084 152.317 165.313 154.066 167.063C155.816 168.812 158.045 170.004 160.472 170.487C162.899 170.97 165.415 170.722 167.701 169.775C169.987 168.828 171.941 167.224 173.316 165.167C174.691 163.109 175.425 160.69 175.425 158.216C175.421 154.899 174.101 151.719 171.756 149.373C169.41 147.027 166.23 145.708 162.913 145.704Z" fill="#CCCCCC"/>
    <path d="M125.088 132.32C122.498 132.32 119.967 131.552 117.814 130.113C115.661 128.675 113.982 126.63 112.991 124.237C112 121.845 111.741 119.212 112.246 116.672C112.751 114.132 113.998 111.799 115.83 109.968C117.661 108.137 119.994 106.89 122.534 106.385C125.073 105.88 127.706 106.139 130.099 107.13C132.491 108.121 134.536 109.799 135.975 111.952C137.413 114.106 138.181 116.637 138.181 119.227C138.177 122.698 136.797 126.026 134.342 128.481C131.887 130.935 128.559 132.316 125.088 132.32ZM125.088 106.715C122.613 106.715 120.194 107.449 118.137 108.824C116.08 110.199 114.476 112.153 113.529 114.439C112.582 116.725 112.334 119.241 112.817 121.668C113.3 124.095 114.491 126.324 116.241 128.074C117.991 129.823 120.22 131.015 122.647 131.498C125.074 131.98 127.59 131.733 129.876 130.786C132.162 129.839 134.116 128.235 135.491 126.178C136.866 124.12 137.599 121.701 137.599 119.227C137.596 115.91 136.276 112.729 133.931 110.384C131.585 108.038 128.405 106.719 125.088 106.715Z" fill="#CCCCCC"/>
    <path d="M160.295 93.331C157.705 93.331 155.173 92.5631 153.02 91.1244C150.867 89.6856 149.189 87.6407 148.198 85.2482C147.207 82.8558 146.948 80.2231 147.453 77.6833C147.958 75.1434 149.205 72.8104 151.036 70.9792C152.867 69.1481 155.2 67.9011 157.74 67.3959C160.28 66.8907 162.913 67.15 165.305 68.141C167.698 69.132 169.743 70.8102 171.181 72.9634C172.62 75.1166 173.388 77.648 173.388 80.2376C173.384 83.709 172.003 87.0371 169.549 89.4917C167.094 91.9463 163.766 93.3271 160.295 93.331ZM160.295 67.7262C157.82 67.7262 155.401 68.46 153.344 69.8348C151.286 71.2095 149.682 73.1636 148.735 75.4497C147.789 77.7359 147.541 80.2515 148.024 82.6785C148.506 85.1055 149.698 87.3348 151.448 89.0846C153.197 90.8343 155.427 92.0259 157.854 92.5087C160.281 92.9914 162.796 92.7437 165.082 91.7967C167.369 90.8497 169.323 89.2461 170.697 87.1886C172.072 85.1311 172.806 82.7122 172.806 80.2376C172.802 76.9206 171.483 73.7404 169.137 71.3949C166.792 69.0493 163.612 67.73 160.295 67.7262Z" fill="#CCCCCC"/>
    <path d="M125.379 53.4449C122.789 53.4449 120.258 52.677 118.105 51.2383C115.952 49.7995 114.273 47.7546 113.282 45.3621C112.291 42.9696 112.032 40.337 112.537 37.7971C113.042 35.2573 114.289 32.9243 116.121 31.0931C117.952 29.262 120.285 28.015 122.825 27.5098C125.364 27.0046 127.997 27.2639 130.39 28.2549C132.782 29.2459 134.827 30.9241 136.266 33.0773C137.704 35.2304 138.472 37.7619 138.472 40.3515C138.468 43.8229 137.088 47.151 134.633 49.6056C132.178 52.0602 128.85 53.4409 125.379 53.4449ZM125.379 27.8401C122.904 27.8401 120.486 28.5739 118.428 29.9487C116.371 31.3234 114.767 33.2775 113.82 35.5636C112.873 37.8498 112.625 40.3654 113.108 42.7924C113.591 45.2194 114.782 47.4487 116.532 49.1984C118.282 50.9482 120.511 52.1398 122.938 52.6226C125.365 53.1053 127.881 52.8575 130.167 51.9106C132.453 50.9636 134.407 49.36 135.782 47.3025C137.157 45.245 137.89 42.8261 137.89 40.3515C137.887 37.0344 136.567 33.8543 134.222 31.5088C131.876 29.1632 128.696 27.8439 125.379 27.8401Z" fill="#CCCCCC"/>
    <path d="M43.2088 142.159C42.8509 141.886 42.5545 141.541 42.3388 141.145C42.1231 140.75 41.9931 140.314 41.9571 139.866C41.9491 139.761 41.9467 139.656 41.9497 139.551L28.4001 130.426C27.9567 130.124 27.6226 129.687 27.4476 129.18C27.2727 128.673 27.2662 128.123 27.4293 127.613L33.9052 111.523C34.1839 110.831 34.7256 110.277 35.4118 109.983C36.098 109.689 36.8728 109.679 37.5664 109.955C38.2601 110.231 38.8161 110.77 39.1128 111.455C39.4095 112.14 39.4226 112.915 39.1493 113.61L33.9208 126.904L44.4715 136.487C44.6107 136.456 44.752 136.434 44.8943 136.422C45.7091 136.357 46.5179 136.606 47.1547 137.119C47.7916 137.631 48.2082 138.368 48.3192 139.178C48.4302 139.988 48.2272 140.809 47.7518 141.474C47.2764 142.139 46.5646 142.597 45.7623 142.754C45.5565 142.794 45.3474 142.814 45.1377 142.814C44.4401 142.814 43.7619 142.584 43.2088 142.159Z" fill="#A0616A"/>
    <path d="M28.4055 120.997C28.3262 120.812 28.2878 120.612 28.2929 120.41C28.298 120.209 28.3465 120.011 28.435 119.83L31.5264 113.512C31.8383 112.53 32.527 111.711 33.4413 111.236C34.3557 110.761 35.4211 110.668 36.4041 110.977C37.387 111.286 38.2073 111.973 38.6849 112.886C39.1626 113.799 39.2588 114.864 38.9523 115.848L37.8236 122.814C37.7914 123.013 37.7167 123.202 37.6046 123.37C37.4926 123.537 37.3457 123.678 37.1742 123.784C37.0026 123.889 36.8103 123.956 36.6104 123.981C36.4105 124.005 36.2077 123.986 36.0157 123.925L29.2697 121.782C29.0777 121.721 28.9011 121.619 28.7519 121.484C28.6028 121.348 28.4846 121.182 28.4055 120.997Z" fill="#FF5C8D"/>
    <path d="M49.7279 199.004H53.2951L54.992 185.245L49.7273 185.246L49.7279 199.004Z" fill="#A0616A"/>
    <path d="M48.8179 197.84L55.8428 197.839H55.8431C56.431 197.839 57.0132 197.955 57.5564 198.18C58.0995 198.405 58.5931 198.735 59.0088 199.151C59.4245 199.566 59.7543 200.06 59.9793 200.603C60.2042 201.146 60.32 201.728 60.32 202.316V202.462L48.8181 202.462L48.8179 197.84Z" fill="#2F2E41"/>
    <path d="M14.8464 196.477L18.3013 197.365L23.3699 184.461L18.2708 183.151L14.8464 196.477Z" fill="#A0616A"/>
    <path d="M14.255 195.122L21.0589 196.871L21.0591 196.871C21.6285 197.017 22.1636 197.274 22.6336 197.627C23.1037 197.981 23.4996 198.423 23.7987 198.929C24.0979 199.435 24.2944 199.995 24.3771 200.577C24.4598 201.159 24.427 201.752 24.2807 202.321L24.2445 202.462L13.1045 199.599L14.255 195.122Z" fill="#2F2E41"/>
    <path d="M39.8663 104.613C43.8131 104.613 47.0127 101.414 47.0127 97.4669C47.0127 93.5201 43.8131 90.3206 39.8663 90.3206C35.9195 90.3206 32.72 93.5201 32.72 97.4669C32.72 101.414 35.9195 104.613 39.8663 104.613Z" fill="#A0616A"/>
    <path d="M36.2519 127.192C34.5516 125.442 33.108 123.46 31.9642 121.304C31.3559 120.123 31.0017 118.827 30.9245 117.5C30.8473 116.173 31.0488 114.845 31.516 113.601C31.9931 112.329 32.7313 111.171 33.683 110.201C34.6346 109.232 35.7787 108.473 37.0417 107.972C39.2564 107.073 41.7275 107.036 43.9683 107.868C46.2091 108.7 48.0574 110.34 49.1493 112.466C50.9375 115.966 51.6383 119.387 51.2322 122.636C50.4559 128.847 50.0014 132.057 49.8814 132.177L49.8415 132.217L36.5475 132.808L36.2519 127.192Z" fill="#FF5C8D"/>
    <path d="M37.0414 131.089L48.938 130.497C49.2384 130.482 49.5329 130.584 49.7598 130.781C49.9867 130.979 50.1284 131.256 50.1551 131.556L55.6277 192.9C55.6423 193.063 55.6223 193.228 55.569 193.382C55.5158 193.537 55.4306 193.679 55.3188 193.798C55.2071 193.918 55.0714 194.013 54.9206 194.076C54.7698 194.14 54.6073 194.171 54.4437 194.167L49.7959 194.068C49.5403 194.063 49.2936 193.974 49.0939 193.814C48.8942 193.654 48.7527 193.433 48.6911 193.185L39.812 157.408C39.7539 157.174 39.6245 156.963 39.4418 156.806C39.259 156.649 39.0319 156.552 38.7918 156.529C38.5517 156.507 38.3105 156.559 38.1015 156.68C37.8925 156.8 37.7261 156.982 37.6252 157.201L20.7989 193.746C20.6846 193.994 20.4866 194.194 20.2396 194.311C19.9926 194.428 19.7124 194.454 19.4479 194.385L14.7705 193.165C14.481 193.09 14.2316 192.906 14.0742 192.652C13.9167 192.398 13.8634 192.092 13.9253 191.8C15.4643 184.535 24.6827 142.931 36.2892 131.415C36.4912 131.218 36.759 131.101 37.0414 131.089Z" fill="#2F2E41"/>
    <path d="M59.57 137.977C59.1398 137.844 58.7424 137.623 58.4036 137.326C58.0648 137.03 57.7923 136.665 57.6037 136.256C57.5602 136.161 57.5216 136.064 57.4883 135.964L41.6217 132.076C41.1014 131.946 40.637 131.651 40.2978 131.236C39.9586 130.82 39.7628 130.306 39.7395 129.77L40.2646 112.435C40.2872 111.689 40.6045 110.982 41.147 110.47C41.6895 109.957 42.4131 109.68 43.1593 109.7C43.9056 109.719 44.6136 110.034 45.1285 110.574C45.6434 111.115 45.9232 111.837 45.9066 112.583L45.5876 126.865L58.7976 132.218C58.9174 132.14 59.0423 132.071 59.1715 132.011H59.1717C59.6434 131.792 60.1613 131.691 60.6807 131.718C61.2 131.744 61.7051 131.896 62.1524 132.161C62.5997 132.426 62.9758 132.796 63.2481 133.239C63.5204 133.682 63.6808 134.185 63.7155 134.704C63.7501 135.223 63.6579 135.742 63.4469 136.217C63.2359 136.692 62.9123 137.109 62.5042 137.431C62.0961 137.754 61.6157 137.972 61.1045 138.067C60.5933 138.162 60.0666 138.131 59.57 137.977V137.977Z" fill="#A0616A"/>
    <path d="M38.5721 121.073C38.4352 120.925 38.3317 120.75 38.2688 120.558C38.2059 120.367 38.185 120.165 38.2075 119.964L38.9939 112.974C38.9574 111.944 39.3308 110.942 40.0321 110.187C40.7334 109.432 41.7054 108.986 42.7351 108.947C43.7648 108.908 44.768 109.278 45.5249 109.977C46.2818 110.676 46.7306 111.647 46.7729 112.677L48.0527 119.617C48.0892 119.815 48.0826 120.019 48.0333 120.214C47.984 120.409 47.8933 120.591 47.7672 120.748C47.6411 120.906 47.4826 121.034 47.3025 121.124C47.1225 121.214 46.9251 121.264 46.7238 121.272L39.6498 121.521C39.4485 121.529 39.248 121.492 39.062 121.415C38.876 121.337 38.7089 121.221 38.5721 121.073Z" fill="#FF5C8D"/>
    <path d="M29.6263 106.902L30.373 104.489L30.8836 107.197L35.0772 107.086L35.0579 104.416L36.6521 107.051L40.4523 106.211C39.6404 105.129 38.8189 104.031 38.2997 102.755C37.7805 101.48 37.5914 99.9848 38.0766 98.694C39.276 95.5027 43.8235 96.3957 46.3108 96.3686C47.0364 96.3607 47.8556 96.3085 48.3308 95.7152C48.6887 95.2685 48.7473 94.6295 48.7292 94.0387C48.6358 90.9967 46.8095 88.0947 44.2276 86.8853C42.9637 86.3033 41.5548 86.1125 40.1817 86.3373C39.4655 86.4504 38.7701 86.6695 38.1183 86.9872C37.5372 87.2711 36.9269 87.9471 36.3012 87.9288C35.7754 87.9134 35.0793 87.3658 34.5072 87.2722C33.8179 87.1658 33.1147 87.1903 32.4345 87.3446C31.0676 87.6493 29.8353 88.3866 28.9207 89.4472C26.977 91.7057 26.3995 95.0338 26.7382 98.0977C27.077 101.162 28.2232 104.043 29.3567 106.875" fill="#2F2E41"/>
    <path d="M233.644 203H0.290963C0.213795 203 0.139787 202.969 0.085221 202.915C0.0306548 202.86 0 202.786 0 202.709C0 202.632 0.0306548 202.558 0.085221 202.503C0.139787 202.449 0.213795 202.418 0.290963 202.418H233.644C233.721 202.418 233.795 202.449 233.849 202.503C233.904 202.558 233.934 202.632 233.934 202.709C233.934 202.786 233.904 202.86 233.849 202.915C233.795 202.969 233.721 203 233.644 203Z" fill="#E6E6E6"/>
    <path d="M229.707 199.394C230.595 198.674 231.242 197.7 231.562 196.602C231.799 195.491 231.325 194.186 230.267 193.756C229.079 193.297 227.808 194.123 226.847 194.954C225.886 195.785 224.78 196.737 223.519 196.558C224.165 195.97 224.647 195.224 224.919 194.393C225.19 193.563 225.242 192.676 225.069 191.819C225.017 191.463 224.867 191.128 224.635 190.853C223.978 190.148 222.78 190.452 221.987 191.008C219.475 192.776 218.775 196.186 218.765 199.259C218.509 198.148 218.722 196.993 218.717 195.877C218.712 194.761 218.398 193.462 217.442 192.872C216.848 192.554 216.182 192.395 215.509 192.413C214.379 192.375 213.123 192.486 212.35 193.312C211.384 194.336 211.64 196.061 212.475 197.177C213.311 198.292 214.577 199.012 215.741 199.795C216.679 200.351 217.478 201.112 218.079 202.022C218.15 202.148 218.209 202.28 218.253 202.418H225.33C226.919 201.613 228.392 200.595 229.707 199.394Z" fill="#F2F2F2"/>
    <path d="M156.074 87.9297C155.943 87.9291 155.813 87.8957 155.698 87.8325C155.583 87.7693 155.485 87.6783 155.413 87.5678C155.342 87.4573 155.299 87.3308 155.289 87.1996C155.279 87.0684 155.302 86.9368 155.355 86.8167L156.266 84.7855C155.011 83.6712 154.212 82.133 154.022 80.4659C153.832 78.7988 154.263 77.1201 155.235 75.7518C156.206 74.3834 157.648 73.4218 159.284 73.0512C160.921 72.6805 162.636 72.9271 164.102 73.7435C165.568 74.56 166.681 75.8888 167.228 77.4752C167.774 79.0617 167.716 80.794 167.064 82.3401C166.412 83.8861 165.212 85.137 163.694 85.853C162.177 86.5689 160.448 86.6994 158.841 86.2195L156.517 87.7925C156.387 87.8816 156.232 87.9294 156.074 87.9297ZM160.772 73.8858C159.562 73.8851 158.381 74.2609 157.394 74.9612C156.407 75.6616 155.662 76.6516 155.263 77.7942C154.863 78.9368 154.829 80.1753 155.166 81.3381C155.502 82.5008 156.191 83.5302 157.139 84.2835L157.425 84.5122L156.446 86.6979L158.694 85.1761L158.916 85.2506C159.718 85.52 160.568 85.6118 161.409 85.5197C162.25 85.4275 163.061 85.1537 163.785 84.717C164.51 84.2804 165.131 83.6915 165.605 82.991C166.079 82.2906 166.395 81.4954 166.532 80.6606C166.668 79.8258 166.621 78.9713 166.395 78.1564C166.168 77.3415 165.767 76.5856 165.219 75.9411C164.671 75.2967 163.989 74.779 163.222 74.4241C162.454 74.0692 161.618 73.8855 160.772 73.8858Z" fill="#3F3D56"/>
    <path d="M160.772 80.3526C161.295 80.3526 161.718 79.9289 161.718 79.4062C161.718 78.8835 161.295 78.4598 160.772 78.4598C160.249 78.4598 159.826 78.8835 159.826 79.4062C159.826 79.9289 160.249 80.3526 160.772 80.3526Z" fill="#3F3D56"/>
    <path d="M158.091 80.3526C158.613 80.3526 159.037 79.9289 159.037 79.4062C159.037 78.8835 158.613 78.4598 158.091 78.4598C157.568 78.4598 157.144 78.8835 157.144 79.4062C157.144 79.9289 157.568 80.3526 158.091 80.3526Z" fill="#3F3D56"/>
    <path d="M163.453 80.3526C163.976 80.3526 164.4 79.9289 164.4 79.4062C164.4 78.8835 163.976 78.4598 163.453 78.4598C162.931 78.4598 162.507 78.8835 162.507 79.4062C162.507 79.9289 162.931 80.3526 163.453 80.3526Z" fill="#3F3D56"/>
  </g>
  <defs>
    <clipPath id="clip0_117_118">
      <rect width="233.934" height="203" fill="white"/>
    </clipPath>
  </defs>
</svg>
